<?xml version="1.0" encoding="UTF-8"?>
<svg version="1.1" xmlns="http://www.w3.org/2000/svg" viewBox="300 150 75 75">
<path d="M0 0 C4.35091649 1.43975782 7.18387886 3.6290913 10.625 6.625 C16.20363945 11.41295234 21.98771702 15.76299743 28 20 C27.70014726 23.23729907 27.39241924 24.63840297 24.9609375 26.87890625 C24.10757813 27.43449219 23.25421875 27.99007812 22.375 28.5625 C21.46878906 29.160625 20.56257813 29.75875 19.62890625 30.375 C17.54599432 31.66250574 15.45993317 32.88850464 13.3125 34.0625 C12.219375 34.701875 11.12625 35.34125 10 36 C9.35675781 36.33386719 8.71351563 36.66773438 8.05078125 37.01171875 C5.69193768 38.52845995 4.47476205 39.58523381 3 42 C1.86167364 47.24159579 1.95561813 52.66149459 2 58 C-2.75 59.125 -2.75 59.125 -5 58 C-5 57.34 -5 56.68 -5 56 C-5.57878906 55.73058594 -6.15757812 55.46117187 -6.75390625 55.18359375 C-9.02440285 53.98714076 -10.9143634 52.63694096 -12.9375 51.0625 C-15.26031344 49.27805827 -17.46103817 47.73106107 -20 46.25 C-20.99 45.63125 -20.99 45.63125 -22 45 C-22 44.34 -22 43.68 -22 43 C-22.804375 42.7525 -23.60875 42.505 -24.4375 42.25 C-27 41 -27 41 -28.0625 39.125 C-28 37 -28 37 -26.49609375 35.21484375 C-23.20312909 32.29291736 -19.65110887 29.8881084 -16 27.4375 C-14.5828339 26.47860229 -13.16615229 25.51898808 -11.75 24.55859375 C-11.09257812 24.11499512 -10.43515625 23.67139648 -9.7578125 23.21435547 C-8.34845349 22.24072329 -6.97916975 21.20919235 -5.625 20.16015625 C-4 19 -4 19 -2 19 C-2.02320313 17.79601562 -2.04640625 16.59203125 -2.0703125 15.3515625 C-2.08906863 13.77604785 -2.10726899 12.20052652 -2.125 10.625 C-2.14175781 9.8309375 -2.15851563 9.036875 -2.17578125 8.21875 C-2.19335473 6.14507985 -2.10335168 4.07116759 -2 2 C-1.34 1.34 -0.68 0.68 0 0 Z " fill="#FA6E15" transform="translate(335,158)"/>
<path d="M0 0 C4.35091649 1.43975782 7.18387886 3.6290913 10.625 6.625 C16.20363945 11.41295234 21.98771702 15.76299743 28 20 C27.70872241 23.36716893 27.32109904 24.69731524 24.8203125 27.0546875 C23.93085938 27.65539062 23.04140625 28.25609375 22.125 28.875 C21.24070312 29.49117187 20.35640625 30.10734375 19.4453125 30.7421875 C18.63835937 31.15726563 17.83140625 31.57234375 17 32 C16.01 31.67 15.02 31.34 14 31 C19.445 27.04 19.445 27.04 25 23 C23.8456843 19.53705291 22.99431621 18.98869557 20.125 16.875 C15.44947938 13.36648933 10.95953969 9.67314944 6.48046875 5.91796875 C4.35821848 4.27698469 2.44276796 3.07618449 0 2 C0.2475 3.670625 0.2475 3.670625 0.5 5.375 C0.89534945 8.68531406 1.18040521 11.98077594 1.3125 15.3125 C1.34988281 16.13363281 1.38726562 16.95476562 1.42578125 17.80078125 C1 20 1 20 -0.81640625 21.7109375 C-3 23 -3 23 -6.25 24.3125 C-9.95637134 25.825143 -12.86676864 27.98302297 -16 30.44921875 C-17.94712184 31.95899877 -19.95135678 33.32036108 -22 34.6875 C-22.99 35.450625 -23.98 36.21375 -25 37 C-25 37.99 -25 38.98 -25 40 C-22.69 40.99 -20.38 41.98 -18 43 C-18 43.99 -18 44.98 -18 46 C-19.32 45.67 -20.64 45.34 -22 45 C-22 44.34 -22 43.68 -22 43 C-22.804375 42.7525 -23.60875 42.505 -24.4375 42.25 C-27 41 -27 41 -28.0625 39.125 C-28 37 -28 37 -26.49609375 35.21484375 C-23.20312909 32.29291736 -19.65110887 29.8881084 -16 27.4375 C-14.5828339 26.47860229 -13.16615229 25.51898808 -11.75 24.55859375 C-11.09257812 24.11499512 -10.43515625 23.67139648 -9.7578125 23.21435547 C-8.34845349 22.24072329 -6.97916975 21.20919235 -5.625 20.16015625 C-4 19 -4 19 -2 19 C-2.02320313 17.79601562 -2.04640625 16.59203125 -2.0703125 15.3515625 C-2.08906863 13.77604785 -2.10726899 12.20052652 -2.125 10.625 C-2.14175781 9.8309375 -2.15851563 9.036875 -2.17578125 8.21875 C-2.19335473 6.14507985 -2.10335168 4.07116759 -2 2 C-1.34 1.34 -0.68 0.68 0 0 Z " fill="#2E140A" transform="translate(335,158)"/>
<path d="M0 0 C0.66 0.33 1.32 0.66 2 1 C1.43410156 1.3196875 0.86820312 1.639375 0.28515625 1.96875 C-2.86374611 4.13811683 -5.50625465 6.03158841 -6.47705078 9.90185547 C-7.08776034 14.59042459 -7.09067343 19.27931457 -7 24 C-11.75 25.125 -11.75 25.125 -14 24 C-14 23.34 -14 22.68 -14 22 C-14.57363281 21.731875 -15.14726562 21.46375 -15.73828125 21.1875 C-18.07025435 19.96311343 -20.08218894 18.57997078 -22.1875 17 C-22.88230469 16.484375 -23.57710938 15.96875 -24.29296875 15.4375 C-26 14 -26 14 -27 12 C-25.00837562 12.99359434 -23.01875215 13.99045616 -21.03515625 15 C-20.38417969 15.33 -19.73320312 15.66 -19.0625 16 C-18.41410156 16.33 -17.76570313 16.66 -17.09765625 17 C-14.76988671 18.10970019 -12.40230031 19.06414736 -10 20 C-10.03222656 19.2265625 -10.06445312 18.453125 -10.09765625 17.65625 C-10.00402557 9.250296 -10.00402557 9.250296 -6.9296875 5.421875 C-4.6929301 3.47260053 -2.44476874 1.6792351 0 0 Z " fill="#532617" transform="translate(344,192)"/>
<path d="M0 0 C0.66 0.33 1.32 0.66 2 1 C0.625 2.5 0.625 2.5 -1 4 C-1.66 4 -2.32 4 -3 4 C-3.25136719 4.59683594 -3.50273437 5.19367188 -3.76171875 5.80859375 C-6.57670614 10.79032222 -13.00519442 14.43124285 -18 17 C-18.99 17 -19.98 17 -21 17 C-20.67 18.32 -20.34 19.64 -20 21 C-21.65 20.67 -23.3 20.34 -25 20 C-24.68915119 16.9658453 -24.0872113 16.07589496 -21.7421875 14.03515625 C-20.79601562 13.38417969 -19.84984375 12.73320312 -18.875 12.0625 C-17.87984375 11.37027344 -16.8846875 10.67804688 -15.859375 9.96484375 C-14.91578125 9.31644531 -13.9721875 8.66804687 -13 8 C-11.70645001 7.04421029 -10.41441734 6.08635762 -9.125 5.125 C-6.41708767 3.28361962 -4.06497756 2.08175679 -1 1 C-0.67 0.67 -0.34 0.34 0 0 Z " fill="#D8692E" transform="translate(334,178)"/>
<path d="M0 0 C0.99 0.33 1.98 0.66 3 1 C-1.53846154 4.78205128 -1.53846154 4.78205128 -4.25 6.0625 C-6.35994637 6.93497944 -6.35994637 6.93497944 -7 10 C-7.70125 10.268125 -8.4025 10.53625 -9.125 10.8125 C-13.21561919 12.50210358 -16.34979658 14.39353761 -19 18 C-20.15468657 21.9705012 -20.67367467 25.88430502 -21 30 C-23.4375 29.625 -23.4375 29.625 -26 29 C-26.33 28.34 -26.66 27.68 -27 27 C-25.35 27.33 -23.7 27.66 -22 28 C-22.12375 26.2984375 -22.12375 26.2984375 -22.25 24.5625 C-22.24111169 19.5672703 -20.8386722 15.12380174 -18 11 C-15.67578125 9.4375 -15.67578125 9.4375 -13 8 C-12.15179688 7.47019531 -11.30359375 6.94039062 -10.4296875 6.39453125 C-9.58664062 5.87246094 -8.74359375 5.35039062 -7.875 4.8125 C-6.60269531 4.01779297 -6.60269531 4.01779297 -5.3046875 3.20703125 C-3 2 -3 2 0 2 C0 1.34 0 0.68 0 0 Z " fill="#D0652C" transform="translate(355,182)"/>
<path d="M0 0 C4.35091649 1.43975782 7.18387886 3.6290913 10.625 6.625 C16.20363945 11.41295234 21.98771702 15.76299743 28 20 C27.70872241 23.36716893 27.32109904 24.69731524 24.8203125 27.0546875 C23.93085938 27.65539062 23.04140625 28.25609375 22.125 28.875 C20.79855469 29.79925781 20.79855469 29.79925781 19.4453125 30.7421875 C18.63835937 31.15726563 17.83140625 31.57234375 17 32 C16.01 31.67 15.02 31.34 14 31 C17.63 28.36 21.26 25.72 25 23 C23.8456843 19.53705291 22.99431621 18.98869557 20.125 16.875 C15.46484957 13.38360934 11.01563137 9.68725413 6.578125 5.91796875 C4.0961015 4.0714937 1.91462964 2.99076439 -1 2 C-0.67 1.34 -0.34 0.68 0 0 Z " fill="#280C04" transform="translate(335,158)"/>
<path d="M0 0 C3.63951535 0.90987884 4.61509165 1.22512973 7.234375 3.50390625 C8.09482422 4.24350586 8.09482422 4.24350586 8.97265625 4.99804688 C9.55917969 5.51431641 10.14570313 6.03058594 10.75 6.5625 C11.35199219 7.08263672 11.95398438 7.60277344 12.57421875 8.13867188 C14.05488159 9.41956274 15.52817542 10.70896312 17 12 C16.01 12.33 15.02 12.66 14 13 C13.46375 12.360625 12.9275 11.72125 12.375 11.0625 C9.54337041 8.60345325 7.6969041 8.24646027 4 8 C2.03177114 9.96822886 2.33751619 13.34808709 2 16 C1.67 16 1.34 16 1 16 C0.67 10.72 0.34 5.44 0 0 Z " fill="#E4702C" transform="translate(335,160)"/>
<path d="M0 0 C0.66 0.33 1.32 0.66 2 1 C1.690625 1.495 1.38125 1.99 1.0625 2.5 C-0.41644382 5.97986781 -0.62402851 9.24028509 -1 13 C-7.20548512 12.06795085 -12.19161745 11.19192325 -17 7 C-17.875 4.75 -17.875 4.75 -18 3 C-17.34 3 -16.68 3 -16 3 C-15.54625 3.474375 -15.0925 3.94875 -14.625 4.4375 C-12.77022513 6.22093737 -11.49864408 6.5691993 -9 7 C-9 7.66 -9 8.32 -9 9 C-7.02 9 -5.04 9 -3 9 C-2.86722656 8.43410156 -2.73445313 7.86820313 -2.59765625 7.28515625 C-2.42105469 6.55167969 -2.24445313 5.81820312 -2.0625 5.0625 C-1.80146484 3.96615234 -1.80146484 3.96615234 -1.53515625 2.84765625 C-1 1 -1 1 0 0 Z " fill="#EB701F" transform="translate(334,197)"/>
<path d="M0 0 C0.66 0.33 1.32 0.66 2 1 C0.73965413 2.50882261 -0.53363649 4.00684044 -1.8125 5.5 C-2.52019531 6.3353125 -3.22789062 7.170625 -3.95703125 8.03125 C-6 10 -6 10 -9 10 C-8.67 11.32 -8.34 12.64 -8 14 C-9.65 13.67 -11.3 13.34 -13 13 C-12.7141437 9.81984862 -12.01509125 9.01287055 -9.53125 6.89453125 C-8.5309375 6.20746094 -7.530625 5.52039063 -6.5 4.8125 C-5.4996875 4.11769531 -4.499375 3.42289063 -3.46875 2.70703125 C-2.6540625 2.14371094 -1.839375 1.58039063 -1 1 C-0.67 0.67 -0.34 0.34 0 0 Z " fill="#AB5E39" transform="translate(322,185)"/>
<path d="M0 0 C0.66 0 1.32 0 2 0 C2.65678885 4.43332475 3.13487822 8.832484 3.3125 13.3125 C3.34988281 14.13363281 3.38726562 14.95476562 3.42578125 15.80078125 C3 18 3 18 0.98046875 19.79296875 C0.32691406 20.19128906 -0.32664062 20.58960938 -1 21 C-1.66 20.67 -2.32 20.34 -3 20 C-2.34 19.34 -1.68 18.68 -1 18 C-0.63168919 16.06742145 -0.63168919 16.06742145 -0.5859375 13.8671875 C-0.54726563 13.06152344 -0.50859375 12.25585938 -0.46875 11.42578125 C-0.4378125 10.58402344 -0.406875 9.74226562 -0.375 8.875 C-0.33632813 8.02550781 -0.29765625 7.17601562 -0.2578125 6.30078125 C-0.16343506 4.20088316 -0.08062414 2.10047109 0 0 Z " fill="#67321E" transform="translate(333,160)"/>
<path d="M0 0 C0.66 0.33 1.32 0.66 2 1 C1.70872241 4.36716893 1.32109904 5.69731524 -1.1796875 8.0546875 C-2.06914062 8.65539062 -2.95859375 9.25609375 -3.875 9.875 C-4.75929688 10.49117187 -5.64359375 11.10734375 -6.5546875 11.7421875 C-7.36164063 12.15726563 -8.16859375 12.57234375 -9 13 C-9.99 12.67 -10.98 12.34 -12 12 C-11.21753906 11.46890625 -10.43507813 10.9378125 -9.62890625 10.390625 C-8.61699219 9.68421875 -7.60507812 8.9778125 -6.5625 8.25 C-5.55316406 7.55390625 -4.54382813 6.8578125 -3.50390625 6.140625 C-1.00288207 4.00246392 -0.28144987 3.20419855 0 0 Z " fill="#220B05" transform="translate(361,177)"/>
<path d="M0 0 C0.99 0.33 1.98 0.66 3 1 C-1.53846154 4.78205128 -1.53846154 4.78205128 -4.25 6.0625 C-6.35994637 6.93497944 -6.35994637 6.93497944 -7 10 C-7.66 9.67 -8.32 9.34 -9 9 C-7.19587357 5.73539027 -6.16605307 4.11070205 -3 2 C-2.01 2 -1.02 2 0 2 C0 1.34 0 0.68 0 0 Z " fill="#A95428" transform="translate(355,182)"/>
<path d="M0 0 C-0.66 0.66 -1.32 1.32 -2 2 C-2.99 2 -3.98 2 -5 2 C-4.67 3.32 -4.34 4.64 -4 6 C-5.65 5.67 -7.3 5.34 -9 5 C-8.875 3.125 -8.875 3.125 -8 1 C-2.71910112 -1.35955056 -2.71910112 -1.35955056 0 0 Z " fill="#CA6C38" transform="translate(318,193)"/>
<path d="M0 0 C7.71428571 4 7.71428571 4 9 8 C8.01 8.66 7.02 9.32 6 10 C6 8.35 6 6.7 6 5 C4.02 4.34 2.04 3.68 0 3 C0 2.01 0 1.02 0 0 Z " fill="#C46B42" transform="translate(352,173)"/>
<path d="M0 0 C2.88575819 0.39803561 3.82189513 0.79009069 5.75 3.0625 C6.1625 3.701875 6.575 4.34125 7 5 C4.03 4.505 4.03 4.505 1 4 C0.67 5.32 0.34 6.64 0 8 C0 5.36 0 2.72 0 0 Z " fill="#AD6444" transform="translate(335,160)"/>
<path d="M0 0 C4.875 1.75 4.875 1.75 6 4 C6.99 4.33 7.98 4.66 9 5 C8.67 5.99 8.34 6.98 8 8 C7.01 7.67 6.02 7.34 5 7 C5 6.34 5 5.68 5 5 C4.01 5.33 3.02 5.66 2 6 C1.67 5.34 1.34 4.68 1 4 C1.66 3.67 2.32 3.34 3 3 C2.01 2.01 1.02 1.02 0 0 Z " fill="#F17027" transform="translate(343,168)"/>
<path d="M0 0 C2 0 2 0 3.4375 1.375 C3.953125 1.91125 4.46875 2.4475 5 3 C5.99 3.66 6.98 4.32 8 5 C7.67 5.99 7.34 6.98 7 8 C1.21538462 4.55384615 1.21538462 4.55384615 0.125 1.75 C0.08375 1.1725 0.0425 0.595 0 0 Z " fill="#C86E39" transform="translate(316,200)"/>
<path d="M0 0 C3.94139078 1.66751148 6.7892812 4.22710649 10 7 C9.01 7.33 8.02 7.66 7 8 C6.401875 7.38125 5.80375 6.7625 5.1875 6.125 C2.99188856 3.86323046 2.99188856 3.86323046 0 2 C0 1.34 0 0.68 0 0 Z " fill="#BC6438" transform="translate(342,165)"/>
<path d="M0 0 C3.87132028 0.57352893 6.08172796 2.48704352 9 5 C8.67 5.66 8.34 6.32 8 7 C6.66382648 6.02471263 5.3311249 5.04466681 4 4.0625 C3.2575 3.51722656 2.515 2.97195312 1.75 2.41015625 C1.1725 1.94480469 0.595 1.47945312 0 1 C0 0.67 0 0.34 0 0 Z " fill="#42180D" transform="translate(352,172)"/>
<path d="" fill="#000000" transform="translate(0,0)"/>
<path d="" fill="#000000" transform="translate(0,0)"/>
<path d="" fill="#000000" transform="translate(0,0)"/>
<path d="" fill="#000000" transform="translate(0,0)"/>
<path d="" fill="#000000" transform="translate(0,0)"/>
<path d="" fill="#000000" transform="translate(0,0)"/>
<path d="" fill="#000000" transform="translate(0,0)"/>
<path d="" fill="#000000" transform="translate(0,0)"/>
<path d="" fill="#000000" transform="translate(0,0)"/>
<path d="" fill="#000000" transform="translate(0,0)"/>
<path d="" fill="#000000" transform="translate(0,0)"/>
<path d="" fill="#000000" transform="translate(0,0)"/>
<path d="" fill="#000000" transform="translate(0,0)"/>
<path d="" fill="#000000" transform="translate(0,0)"/>
<path d="" fill="#000000" transform="translate(0,0)"/>
<path d="" fill="#000000" transform="translate(0,0)"/>
<path d="" fill="#000000" transform="translate(0,0)"/>
<path d="" fill="#000000" transform="translate(0,0)"/>
<path d="" fill="#000000" transform="translate(0,0)"/>
<path d="" fill="#000000" transform="translate(0,0)"/>
<path d="" fill="#000000" transform="translate(0,0)"/>
<path d="" fill="#000000" transform="translate(0,0)"/>
<path d="" fill="#000000" transform="translate(0,0)"/>
<path d="" fill="#000000" transform="translate(0,0)"/>
<path d="" fill="#000000" transform="translate(0,0)"/>
<path d="" fill="#000000" transform="translate(0,0)"/>
<path d="" fill="#000000" transform="translate(0,0)"/>
<path d="" fill="#000000" transform="translate(0,0)"/>
<path d="" fill="#000000" transform="translate(0,0)"/>
<path d="" fill="#000000" transform="translate(0,0)"/>
<path d="" fill="#000000" transform="translate(0,0)"/>
<path d="" fill="#000000" transform="translate(0,0)"/>
<path d="" fill="#000000" transform="translate(0,0)"/>
<path d="" fill="#000000" transform="translate(0,0)"/>
<path d="" fill="#000000" transform="translate(0,0)"/>
<path d="" fill="#000000" transform="translate(0,0)"/>
<path d="" fill="#000000" transform="translate(0,0)"/>
<path d="" fill="#000000" transform="translate(0,0)"/>
<path d="" fill="#000000" transform="translate(0,0)"/>
<path d="" fill="#000000" transform="translate(0,0)"/>
<path d="" fill="#000000" transform="translate(0,0)"/>
<path d="" fill="#000000" transform="translate(0,0)"/>
<path d="" fill="#000000" transform="translate(0,0)"/>
<path d="" fill="#000000" transform="translate(0,0)"/>
<path d="" fill="#000000" transform="translate(0,0)"/>
<path d="" fill="#000000" transform="translate(0,0)"/>
<path d="" fill="#000000" transform="translate(0,0)"/>
<path d="" fill="#000000" transform="translate(0,0)"/>
<path d="" fill="#000000" transform="translate(0,0)"/>
<path d="" fill="#000000" transform="translate(0,0)"/>
<path d="" fill="#000000" transform="translate(0,0)"/>
<path d="" fill="#000000" transform="translate(0,0)"/>
<path d="" fill="#000000" transform="translate(0,0)"/>
<path d="" fill="#000000" transform="translate(0,0)"/>
<path d="" fill="#000000" transform="translate(0,0)"/>
<path d="" fill="#000000" transform="translate(0,0)"/>
<path d="" fill="#000000" transform="translate(0,0)"/>
<path d="" fill="#000000" transform="translate(0,0)"/>
<path d="" fill="#000000" transform="translate(0,0)"/>
<path d="" fill="#000000" transform="translate(0,0)"/>
<path d="" fill="#000000" transform="translate(0,0)"/>
<path d="" fill="#000000" transform="translate(0,0)"/>
<path d="" fill="#000000" transform="translate(0,0)"/>
<path d="" fill="#000000" transform="translate(0,0)"/>
<path d="" fill="#000000" transform="translate(0,0)"/>
<path d="" fill="#000000" transform="translate(0,0)"/>
<path d="" fill="#000000" transform="translate(0,0)"/>
<path d="" fill="#000000" transform="translate(0,0)"/>
<path d="" fill="#000000" transform="translate(0,0)"/>
<path d="" fill="#000000" transform="translate(0,0)"/>
<path d="" fill="#000000" transform="translate(0,0)"/>
<path d="" fill="#000000" transform="translate(0,0)"/>
<path d="" fill="#000000" transform="translate(0,0)"/>
<path d="" fill="#000000" transform="translate(0,0)"/>
<path d="" fill="#000000" transform="translate(0,0)"/>
<path d="" fill="#000000" transform="translate(0,0)"/>
<path d="" fill="#000000" transform="translate(0,0)"/>
<path d="" fill="#000000" transform="translate(0,0)"/>
<path d="" fill="#000000" transform="translate(0,0)"/>
<path d="" fill="#000000" transform="translate(0,0)"/>
<path d="" fill="#000000" transform="translate(0,0)"/>
<path d="" fill="#000000" transform="translate(0,0)"/>
</svg>
