<?xml version="1.0" encoding="UTF-8"?>
<svg version="1.1" xmlns="http://www.w3.org/2000/svg" width="666" height="375">
<path d="M0 0 C5 0 5 0 8 2 C8 2.66 8 3.32 8 4 C8.721875 4.2475 9.44375 4.495 10.1875 4.75 C13.27606582 6.12269592 15.51011418 7.72353296 18 10 C18 10.66 18 11.32 18 12 C18.99 12 19.98 12 21 12 C23.5 14.3125 23.5 14.3125 26 17 C26.61875 17.495 27.2375 17.99 27.875 18.5 C29 20 29 20 28.9375 22.5 C27.81292948 25.49885473 26.77241394 26.45070985 24 28 C23.01 28 22.02 28 21 28 C21 28.66 21 29.32 21 30 C19.0234375 31.33203125 19.0234375 31.33203125 16.375 32.8125 C12.15551161 35.17566692 8.37199269 37.50167906 5 41 C4.44100202 43.98231369 4.20173638 46.22464999 4.25 49.1875 C4.2093778 56.7906222 4.2093778 56.7906222 2 59 C-2.67275945 59 -5.19687623 56.37494344 -8.44921875 53.375 C-9.96989228 51.90723545 -9.96989228 51.90723545 -12 51 C-12 50.34 -12 49.68 -12 49 C-12.56332031 48.72800781 -13.12664062 48.45601562 -13.70703125 48.17578125 C-16.10991302 46.94363915 -18.39894419 45.62115728 -20.6875 44.1875 C-21.47511719 43.70667969 -22.26273438 43.22585937 -23.07421875 42.73046875 C-25 41 -25 41 -26.01953125 38.55078125 C-26 36 -26 36 -24.359375 33.8984375 C-22.04312816 32.03470246 -19.7103203 30.29394339 -17.25 28.625 C-13.27653478 25.9075489 -9.45073313 23.0722981 -5.69140625 20.06640625 C-4 19 -4 19 -1 19 C-0.67 12.73 -0.34 6.46 0 0 Z " fill="#FA6D14" transform="translate(175,113)"/>
<path d="M0 0 C1.6554073 1.6554073 1.1585617 3.62045139 1.18945312 5.89941406 C1.20617065 6.94429993 1.22288818 7.98918579 1.2401123 9.06573486 C1.25368774 10.20419861 1.26726318 11.34266235 1.28125 12.515625 C1.30886414 14.2603006 1.30886414 14.2603006 1.33703613 16.04022217 C1.39600151 19.77676151 1.44869476 23.51334809 1.5 27.25 C1.56767606 32.15113795 1.64143311 37.05213079 1.71875 41.953125 C1.73232544 43.08349182 1.74590088 44.21385864 1.7598877 45.378479 C1.77660522 46.43597351 1.79332275 47.49346802 1.81054688 48.58300781 C1.82307495 49.51042786 1.83560303 50.4378479 1.84851074 51.39337158 C2.00070643 54.01215537 2.42275509 56.44411427 3 59 C-2 59 -7 59 -12 59 C-13.41781608 59.17860086 -14.83441639 59.36699107 -16.25 59.5625 C-21.71761918 60.15719235 -26.11176467 60.48361348 -30.625 56.9375 C-31.40875 55.968125 -32.1925 54.99875 -33 54 C-33.46792969 53.443125 -33.93585938 52.88625 -34.41796875 52.3125 C-38.07523324 47.39516959 -38.75348108 43.04779563 -38.4921875 36.9765625 C-37.59450467 31.54771872 -35.30890142 26.94754896 -31.078125 23.37890625 C-27.04714043 20.7042116 -24.40298234 19.72306054 -19.5 19.75 C-18.5615625 19.74484375 -17.623125 19.7396875 -16.65625 19.734375 C-13.95952324 20.00404768 -12.31050707 20.6267741 -10 22 C-10.1141866 20.06183265 -10.24173423 18.12444901 -10.375 16.1875 C-10.44460938 15.10855469 -10.51421875 14.02960938 -10.5859375 12.91796875 C-10.81195733 9.81373814 -10.81195733 9.81373814 -13 7 C-13 5.68 -13 4.36 -13 3 C-4.33365759 -0.52529183 -4.33365759 -0.52529183 0 0 Z M-25 27 C-28.53962985 34.25624118 -27.448116 41.67699085 -24.94921875 49.0546875 C-23.89554562 51.21406699 -22.85264463 52.47752966 -21 54 C-17.61588456 55.00803439 -15.87298151 55.4482878 -12.6875 53.8125 C-9.252267 50.12280529 -9.80790437 45.46001487 -9.75 40.625 C-9.72421875 39.33851563 -9.6984375 38.05203125 -9.671875 36.7265625 C-10.02382341 32.72943414 -10.86881841 30.37603065 -13 27 C-17.09833023 24.26777984 -20.93265194 23.91442561 -25 27 Z " fill="#202020" transform="translate(306,152)"/>
<path d="M0 0 C0.33 11.55 0.66 23.1 1 35 C1.66 35 2.32 35 3 35 C3.20625 34.443125 3.4125 33.88625 3.625 33.3125 C5 31 5 31 8.1875 28.625 C9.5796875 27.325625 9.5796875 27.325625 11 26 C10.67 24.02 10.34 22.04 10 20 C14.62 20 19.24 20 24 20 C23 25 23 25 20.1875 27.0625 C19.135625 27.701875 18.08375 28.34125 17 29 C16.2575 29.7425 15.515 30.485 14.75 31.25 C14.1725 31.8275 13.595 32.405 13 33 C12.34 33 11.68 33 11 33 C11.59167969 33.78503906 12.18335938 34.57007813 12.79296875 35.37890625 C13.58316406 36.42949219 14.37335938 37.48007813 15.1875 38.5625 C15.6002417 39.110271 16.0129834 39.65804199 16.43823242 40.22241211 C18.62320007 43.13097573 20.75610019 46.06196695 22.8125 49.0625 C24.73348694 51.64211103 26.30134948 53.30084968 29 55 C28.67 55.99 28.34 56.98 28 58 C22.72 58 17.44 58 12 58 C12 56.68 12 55.36 12 54 C10.74267113 50.8994026 8.90336274 48.39569054 6.875 45.75 C6.33617187 45.04359375 5.79734375 44.3371875 5.2421875 43.609375 C4.83226562 43.07828125 4.42234375 42.5471875 4 42 C3.01 42.66 2.02 43.32 1 44 C0.56172799 45.90457929 0.56172799 45.90457929 0.6875 48 C0.69136719 48.70125 0.69523438 49.4025 0.69921875 50.125 C0.85087054 52.2416577 0.85087054 52.2416577 3 54 C3 55.32 3 56.64 3 58 C-2.61 58 -8.22 58 -14 58 C-13 53 -13 53 -12 52 C-11.89182787 50.66557147 -11.85101273 49.32556701 -11.83886719 47.98681641 C-11.82925964 47.13568268 -11.8196521 46.28454895 -11.80975342 45.40762329 C-11.80550354 44.48162323 -11.80125366 43.55562317 -11.796875 42.6015625 C-11.79117493 41.65566254 -11.78547485 40.70976257 -11.77960205 39.73519897 C-11.77013636 37.7294019 -11.76361187 35.72358916 -11.75976562 33.71777344 C-11.75006286 30.64490674 -11.71905542 27.57270944 -11.6875 24.5 C-11.68097004 22.55469149 -11.67571954 20.60937817 -11.671875 18.6640625 C-11.6533548 17.2811351 -11.6533548 17.2811351 -11.63446045 15.87026978 C-11.63746155 15.01283173 -11.64046265 14.15539368 -11.64355469 13.27197266 C-11.63990906 12.51776031 -11.63626343 11.76354797 -11.63250732 10.98648071 C-12.09599335 8.4811082 -13.16075467 7.69023539 -15 6 C-15 5.34 -15 4.68 -15 4 C-13.4470724 3.12855131 -11.88214564 2.27846343 -10.3125 1.4375 C-9.44238281 0.96183594 -8.57226562 0.48617187 -7.67578125 -0.00390625 C-5 -1 -5 -1 0 0 Z " fill="#151515" transform="translate(199,153)"/>
<path d="M0 0 C0.73476563 -0.00386719 1.46953125 -0.00773438 2.2265625 -0.01171875 C7.19164537 -0.00297741 11.95971773 0.42281682 16.875 1.125 C16.875 2.775 16.875 4.425 16.875 6.125 C15.885 6.455 14.895 6.785 13.875 7.125 C14.12636719 7.74246094 14.37773437 8.35992187 14.63671875 8.99609375 C16.71925154 14.76919098 17.24956504 18.52607037 14.9140625 24.2734375 C13.61597123 26.58657759 12.2311196 27.90631745 9.875 29.125 C10.844375 29.74375 11.81375 30.3625 12.8125 31 C15.875 33.125 15.875 33.125 16.875 35.125 C17.56626913 42.15290279 17.56626913 42.15290279 14.875 45.9375 C7.30998732 51.45365508 0.03430074 51.98952584 -9.125 51.125 C-13.6686273 50.03642263 -17.31570519 47.90674302 -20.125 44.125 C-21.09057827 40.81444593 -21.46235758 38.97963921 -20.1875 35.75 C-19.125 34.125 -19.125 34.125 -16.9375 33.625 C-14.125 34.125 -14.125 34.125 -12.6796875 35.8359375 C-9.125 41.4625 -9.125 41.4625 -9.125 44.125 C-7.52179026 44.32051338 -5.91737014 44.50611983 -4.3125 44.6875 C-3.41917969 44.79191406 -2.52585937 44.89632812 -1.60546875 45.00390625 C1.00875572 45.28158709 1.00875572 45.28158709 3.875 44.125 C4.99640731 39.42982745 4.99640731 39.42982745 3.8046875 34.93359375 C1.06828074 32.36890482 -0.99108837 32.557272 -4.6875 32.4375 C-10.99198912 32.19150544 -10.99198912 32.19150544 -13.125 31.125 C-13.125 30.465 -13.125 29.805 -13.125 29.125 C-13.723125 28.8775 -14.32125 28.63 -14.9375 28.375 C-17.56775873 26.87199501 -18.57834562 25.73741622 -20.125 23.125 C-20.99415378 17.04816647 -21.48191712 11.10222209 -17.9375 5.9375 C-17.009375 5.339375 -16.08125 4.74125 -15.125 4.125 C-14.238125 3.5475 -13.35125 2.97 -12.4375 2.375 C-8.14871398 0.05673729 -4.81919316 -0.02458772 0 0 Z M-8.4375 7.1875 C-10.58932966 10.93327756 -10.7049099 12.84816452 -10.125 17.125 C-8.64513701 20.94221669 -7.03132658 24.21867342 -4.125 27.125 C-0.07238713 27.46990322 1.42254176 27.42663882 4.875 25.125 C6.68411438 18.37097299 5.3372451 13.17268786 1.875 7.125 C-2.25283212 4.37311192 -4.59261802 3.75828094 -8.4375 7.1875 Z " fill="#1D1D1D" transform="translate(398.125,171.875)"/>
<path d="M0 0 C2.9254644 0.2236068 2.9254644 0.2236068 5 -1 C9.70033673 -1.43259736 13.76849279 -1.54186317 18.125 0.375 C19.053125 1.179375 19.053125 1.179375 20 2 C20 2.66 20 3.32 20 4 C20.928125 4.2475 20.928125 4.2475 21.875 4.5 C25.15195571 6.81314521 25.29654755 10.24485148 26 14 C26.44890157 17.22180398 26.7684886 20.44826136 27.0625 23.6875 C27.21786466 25.33744702 27.37535456 26.98719555 27.53515625 28.63671875 C27.600979 29.35561279 27.66680176 30.07450684 27.73461914 30.81518555 C28.02784484 33.22923967 28.52308529 35.61542646 29 38 C23.72 38 18.44 38 13 38 C13.33 36.35 13.66 34.7 14 33 C14.23344155 29.52278204 14.23073618 26.04684297 14.25 22.5625 C14.270625 21.63373047 14.29125 20.70496094 14.3125 19.74804688 C14.34309584 14.37465218 13.9671511 10.67716714 11 6 C8.69 6 6.38 6 4 6 C1.14652809 11.62412538 0.55990735 16.0502527 0.6875 22.3125 C0.68427734 23.12267578 0.68105469 23.93285156 0.67773438 24.76757812 C0.53421013 29.36304352 0.53421013 29.36304352 3 33 C3 34.65 3 36.3 3 38 C-2.28 38 -7.56 38 -13 38 C-13 36.35 -13 34.7 -13 33 C-12.01 32.505 -12.01 32.505 -11 32 C-10.94212216 28.37506666 -10.9064458 24.75025143 -10.875 21.125 C-10.85824219 20.09246094 -10.84148437 19.05992187 -10.82421875 17.99609375 C-10.81777344 17.00996094 -10.81132812 16.02382812 -10.8046875 15.0078125 C-10.79421387 14.09660645 -10.78374023 13.18540039 -10.77294922 12.24658203 C-10.78129007 9.79709564 -10.78129007 9.79709564 -13 8 C-13.125 5.375 -13.125 5.375 -13 3 C-4.90339466 -1.68116388 -4.90339466 -1.68116388 0 0 Z " fill="#191919" transform="translate(346,173)"/>
<path d="M0 0 C0.33 0.66 0.66 1.32 1 2 C1.804375 1.67 2.60875 1.34 3.4375 1 C9.15692457 -0.60545251 14.46954662 -1.1352209 19.875 1.6875 C23.63852129 4.47250575 25.59062613 6.58136798 26.390625 11.30786133 C26.6720964 14.05807146 26.8831165 16.80377059 27.0625 19.5625 C27.19171623 21.43933369 27.32816619 23.31568662 27.47265625 25.19140625 C27.55398804 26.43192749 27.55398804 26.43192749 27.63696289 27.69750977 C27.87903698 30.02410753 27.87903698 30.02410753 29.03295898 31.98803711 C30 34 30 34 30 39 C24.72 39 19.44 39 14 39 C15 34 15 34 17 31 C17.10958136 28.94627902 17.10958136 28.94627902 16.79296875 26.7265625 C16.70080078 25.9015625 16.60863281 25.0765625 16.51367188 24.2265625 C16.40603516 23.36804688 16.29839844 22.50953125 16.1875 21.625 C16.09146484 20.77421875 15.99542969 19.9234375 15.89648438 19.046875 C15.42580069 14.99078204 14.8945725 10.98864436 14 7 C10.7 7 7.4 7 4 7 C2.72942545 12.08229819 2.77683982 16.84551094 2.75 22.0625 C2.729375 23.06861328 2.70875 24.07472656 2.6875 25.11132812 C2.68234375 26.07619141 2.6771875 27.04105469 2.671875 28.03515625 C2.6625293 28.9156665 2.65318359 29.79617676 2.64355469 30.70336914 C3.06737977 33.43413798 3.88189207 34.29677559 6 36 C5.67 36.99 5.34 37.98 5 39 C-0.61 39 -6.22 39 -12 39 C-11 35 -11 35 -10 33 C-9.75891047 29.17174131 -9.81480747 25.33500738 -9.8125 21.5 C-9.80025391 20.42878906 -9.78800781 19.35757813 -9.77539062 18.25390625 C-9.77345703 17.23167969 -9.77152344 16.20945313 -9.76953125 15.15625 C-9.76542236 14.21587891 -9.76131348 13.27550781 -9.75708008 12.30664062 C-9.7760286 9.8045316 -9.7760286 9.8045316 -12 8 C-12.0625 6.125 -12.0625 6.125 -11 4 C-7.30217199 1.15402766 -4.72528119 0 0 0 Z " fill="#161616" transform="translate(451,172)"/>
<path d="M0 0 C6.67037664 3.93973366 9.58413254 8.78715829 11.5625 16.25 C12.14082296 23.00080836 9.68380459 28.04538106 5.5625 33.25 C2.4743859 36.79224852 -0.09675501 37.55817327 -4.625 38.125 C-11.29105958 38.4938373 -17.43627179 37.94634638 -23.3125 34.625 C-28.24487421 29.11234648 -30.77589878 22.69477308 -30.4375 15.25 C-29.18163503 9.52654981 -26.61476601 4.54636525 -21.7890625 1.05859375 C-14.99096935 -2.92314652 -7.16356298 -3.36167201 0 0 Z M-16.4375 4.25 C-19.95520146 9.33112433 -20.15052031 14.28988149 -19.4375 20.25 C-18.64405422 23.0772206 -17.63518549 25.55520764 -16.4375 28.25 C-15.7775 28.25 -15.1175 28.25 -14.4375 28.25 C-14.1075 29.24 -13.7775 30.23 -13.4375 31.25 C-11.0867925 32.92907679 -9.8329185 33.27965639 -6.9375 33.0625 C-4.02240437 32.11509392 -2.57427204 31.47543478 -0.4375 29.25 C0.02976363 26.35235867 0.22930362 23.95840737 0.1875 21.0625 C0.17984619 20.29744141 0.17219238 19.53238281 0.16430664 18.74414062 C-0.0469134 13.38178471 -0.85090058 9.52641574 -4.6484375 5.50390625 C-8.55936044 2.76284454 -12.05926714 2.79058905 -16.4375 4.25 Z " fill="#1B1B1B" transform="translate(254.4375,173.75)"/>
<path d="M0 0 C5 0 5 0 8 2 C8 2.66 8 3.32 8 4 C8.721875 4.2475 9.44375 4.495 10.1875 4.75 C13.27606582 6.12269592 15.51011418 7.72353296 18 10 C18 10.66 18 11.32 18 12 C18.99 12 19.98 12 21 12 C23.5 14.3125 23.5 14.3125 26 17 C26.61875 17.495 27.2375 17.99 27.875 18.5 C29 20 29 20 28.9375 22.5 C27.81292948 25.49885473 26.77241394 26.45070985 24 28 C23.01 28 22.02 28 21 28 C21 28.66 21 29.32 21 30 C19.0234375 31.33203125 19.0234375 31.33203125 16.375 32.8125 C12.15551161 35.17566692 8.37199269 37.50167906 5 41 C4.44100202 43.98231369 4.20173638 46.22464999 4.25 49.1875 C4.2093778 56.7906222 4.2093778 56.7906222 2 59 C-2.67275945 59 -5.19687623 56.37494344 -8.44921875 53.375 C-9.96989228 51.90723545 -9.96989228 51.90723545 -12 51 C-12 50.34 -12 49.68 -12 49 C-12.56332031 48.72800781 -13.12664062 48.45601562 -13.70703125 48.17578125 C-16.10991302 46.94363915 -18.39894419 45.62115728 -20.6875 44.1875 C-21.47511719 43.70667969 -22.26273438 43.22585937 -23.07421875 42.73046875 C-25 41 -25 41 -26.01953125 38.55078125 C-26 36 -26 36 -24.359375 33.8984375 C-22.04312816 32.03470246 -19.7103203 30.29394339 -17.25 28.625 C-13.27653478 25.9075489 -9.45073313 23.0722981 -5.69140625 20.06640625 C-4 19 -4 19 -1 19 C-0.67 12.73 -0.34 6.46 0 0 Z M4 7 C3.97421875 7.74765625 3.9484375 8.4953125 3.921875 9.265625 C3.45112782 17.43950786 3.45112782 17.43950786 0.9375 20.5625 C0.298125 21.036875 -0.34125 21.51125 -1 22 C-1 22.66 -1 23.32 -1 24 C-2.010625 24.061875 -3.02125 24.12375 -4.0625 24.1875 C-8.37689099 24.80384157 -12.08929522 26.71771589 -15 30 C-15 31.32 -15 32.64 -15 34 C-16.65 34.33 -18.3 34.66 -20 35 C-20.33425735 37.37374861 -20.33425735 37.37374861 -20 40 C-18.26961928 41.90201742 -18.26961928 41.90201742 -16 43 C-15.01 43 -14.02 43 -13 43 C-12.938125 43.78375 -12.87625 44.5675 -12.8125 45.375 C-12.544375 46.24125 -12.27625 47.1075 -12 48 C-10.3523962 48.71247732 -8.68236471 49.37400383 -7 50 C-5.66172696 51.66270287 -4.32810215 53.32916181 -3 55 C-1.68 55.33 -0.36 55.66 1 56 C1.33 49.73 1.66 43.46 2 37 C3.65 36.67 5.3 36.34 7 36 C9.24690924 34.1382752 10.70728063 32.68389889 11.859375 29.9921875 C13.27804833 27.51436765 14.4611184 27.02809737 17.0625 25.9375 C19.19972233 25.09000323 19.19972233 25.09000323 21 24 C21.495 22.515 21.495 22.515 22 21 C19.82654873 17.74185309 19.82654873 17.74185309 17 15 C16.01 15 15.02 15 14 15 C14 14.01 14 13.02 14 12 C13.38125 11.9175 12.7625 11.835 12.125 11.75 C10 11 10 11 8.75 8.9375 C8.5025 8.298125 8.255 7.65875 8 7 C6.68 7 5.36 7 4 7 Z " fill="#DA6C33" transform="translate(175,113)"/>
<path d="M0 0 C1.48320952 2.96641903 1.20408729 5.7124113 1.28125 9.01953125 C1.30886414 10.06290901 1.30886414 10.06290901 1.33703613 11.12736511 C1.39582443 13.35565681 1.44858294 15.58402677 1.5 17.8125 C1.56793271 20.73582873 1.64170484 23.6589302 1.71875 26.58203125 C1.74904297 27.88374268 1.77933594 29.1854541 1.81054688 30.52661133 C1.93258482 34.28007516 1.93258482 34.28007516 3 39 C-2.28 39 -7.56 39 -13 39 C-13 37.35 -13 35.7 -13 34 C-11.515 33.505 -11.515 33.505 -10 33 C-10.10954408 29.37435813 -10.2402496 25.74978569 -10.375 22.125 C-10.4059375 21.09246094 -10.436875 20.05992187 -10.46875 18.99609375 C-10.50742187 18.00996094 -10.54609375 17.02382812 -10.5859375 16.0078125 C-10.6173584 15.09660645 -10.6487793 14.18540039 -10.68115234 13.24658203 C-10.79882511 10.80068814 -10.79882511 10.80068814 -13 9 C-13.0625 6.625 -13.0625 6.625 -12 4 C-7.93206408 1.10550713 -5.11091701 -0.61950509 0 0 Z " fill="#1F1F1F" transform="translate(326,172)"/>
<path d="M0 0 C0 10.89 0 21.78 0 33 C1.32 33.66 2.64 34.32 4 35 C4 36.32 4 37.64 4 39 C-1.61 39 -7.22 39 -13 39 C-12 34 -12 34 -11 33 C-10.74798116 29.38194129 -10.81477465 25.7507992 -10.8125 22.125 C-10.80025391 21.10535156 -10.78800781 20.08570313 -10.77539062 19.03515625 C-10.77345703 18.05675781 -10.77152344 17.07835937 -10.76953125 16.0703125 C-10.76542236 15.17070801 -10.76131348 14.27110352 -10.75708008 13.34423828 C-10.84405337 10.72910349 -10.84405337 10.72910349 -13 8 C-13.0625 6.0625 -13.0625 6.0625 -12 4 C-7.31180373 0.75432566 -5.88638765 0 0 0 Z " fill="#131313" transform="translate(432,172)"/>
<path d="M0 0 C0.66 0.33 1.32 0.66 2 1 C-1.49205938 4.59476701 -5.04033675 7.92026191 -9 11 C-9.66 11 -10.32 11 -11 11 C-11 12.32 -11 13.64 -11 15 C-12.65 15.33 -14.3 15.66 -16 16 C-15.67 17.65 -15.34 19.3 -15 21 C-14.34 21 -13.68 21 -13 21 C-12.67 21.66 -12.34 22.32 -12 23 C-11.01 23.33 -10.02 23.66 -9 24 C-8.8453125 24.9590625 -8.8453125 24.9590625 -8.6875 25.9375 C-8.460625 26.618125 -8.23375 27.29875 -8 28 C-6.00428677 28.67939174 -4.00405227 29.34561559 -2 30 C-0.9375 31.9375 -0.9375 31.9375 0 34 C1.63957701 35.04382231 3.30531033 36.04826228 5 37 C4.98839844 35.96359375 4.97679687 34.9271875 4.96484375 33.859375 C4.95546163 32.48958514 4.94636188 31.11979332 4.9375 29.75 C4.92912109 29.06808594 4.92074219 28.38617188 4.91210938 27.68359375 C4.87772272 20.59994237 4.87772272 20.59994237 6 18 C11.87517908 14.78527937 11.87517908 14.78527937 15.23046875 15.42578125 C15.81441406 15.61527344 16.39835937 15.80476562 17 16 C16.43410156 16.2475 15.86820313 16.495 15.28515625 16.75 C12.55882188 18.28326362 10.92253703 19.50192641 9 22 C8.25420007 26.24466705 8.11717693 30.22240049 8.1328125 34.515625 C8 38 8 38 6 40 C1.32724055 40 -1.19687623 37.37494344 -4.44921875 34.375 C-5.96989228 32.90723545 -5.96989228 32.90723545 -8 32 C-8 31.34 -8 30.68 -8 30 C-8.56332031 29.72800781 -9.12664062 29.45601562 -9.70703125 29.17578125 C-12.10991302 27.94363915 -14.39894419 26.62115728 -16.6875 25.1875 C-17.47511719 24.70667969 -18.26273438 24.22585937 -19.07421875 23.73046875 C-21 22 -21 22 -22.01953125 19.55078125 C-22 17 -22 17 -20.359375 14.8984375 C-18.04312816 13.03470246 -15.7103203 11.29394339 -13.25 9.625 C-8.74274924 6.52877285 -4.34780798 3.31550721 0 0 Z " fill="#B76C48" transform="translate(171,132)"/>
<path d="M0 0 C2.4375 1.5625 2.4375 1.5625 4 4 C3.78571429 10.21428571 3.78571429 10.21428571 1 13 C-5.94079656 13.67168999 -5.94079656 13.67168999 -9.5625 11.375 C-11 9 -11 9 -11 5.9375 C-10 3 -10 3 -8.3125 1.125 C-5.26389315 -0.35810604 -3.35257076 -0.48891657 0 0 Z " fill="#202020" transform="translate(324,155)"/>
<path d="M0 0 C2.375 1.0625 2.375 1.0625 4 3 C4.25 6.6875 4.25 6.6875 4 10 C3.34 10 2.68 10 2 10 C1.67 10.99 1.34 11.98 1 13 C-2.49186021 13.20145347 -5.19917389 13.34907805 -8.4375 11.9375 C-10 10 -10 10 -10.5 6.5 C-10 3 -10 3 -8.375 1.0625 C-5.32437685 -0.30225246 -3.31256176 -0.41407022 0 0 Z " fill="#1B1B1B" transform="translate(430,155)"/>
<path d="M0 0 C3.71599191 -0.20086443 4.77208445 -0.1519437 8 2 C8 2.66 8 3.32 8 4 C8.721875 4.2475 9.44375 4.495 10.1875 4.75 C13.27606582 6.12269592 15.51011418 7.72353296 18 10 C18 10.66 18 11.32 18 12 C18.99 12 19.98 12 21 12 C23.5 14.3125 23.5 14.3125 26 17 C26.61875 17.495 27.2375 17.99 27.875 18.5 C29 20 29 20 28.9375 22.5 C27.81292948 25.49885473 26.77241394 26.45070985 24 28 C23.01 28 22.02 28 21 28 C21 28.66 21 29.32 21 30 C16.375 32.125 16.375 32.125 13 31 C13 30.34 13 29.68 13 29 C14.2375 28.566875 15.475 28.13375 16.75 27.6875 C19.91596559 26.50868303 22.43121425 25.24768753 25 23 C24.12287418 17.87977803 20.89308345 16.08686654 17 13 C16.2678125 12.35933594 15.535625 11.71867187 14.78125 11.05859375 C9.98387531 6.83353196 9.98387531 6.83353196 3.9375 5.5625 C2.968125 5.706875 1.99875 5.85125 1 6 C1 9.96 1 13.92 1 18 C0.34 17.34 -0.32 16.68 -1 16 C-0.98252073 13.24410223 -0.86136729 10.61213324 -0.625 7.875 C-0.56828125 7.12089844 -0.5115625 6.36679688 -0.453125 5.58984375 C-0.3115535 3.72581904 -0.15700041 1.86278863 0 0 Z " fill="#9B6249" transform="translate(175,113)"/>
<path d="M0 0 C2.475 0.495 2.475 0.495 5 1 C5.33 1.99 5.66 2.98 6 4 C8.01508358 4.73323796 8.01508358 4.73323796 10 5 C9.67 5.99 9.34 6.98 9 8 C7.9171875 8.061875 7.9171875 8.061875 6.8125 8.125 C2.79172675 9.37590723 1.58245113 11.7195891 -1 15 C-1.66 15 -2.32 15 -3 15 C-3.33 15.99 -3.66 16.98 -4 18 C-5.99609375 19.09765625 -5.99609375 19.09765625 -8.4375 20.0625 C-11.24933055 21.18632955 -12.8372207 21.8372207 -15 24 C-17.125 23.625 -17.125 23.625 -19 23 C-14.17375515 19.15870308 -11.16456476 17.37742233 -5 17 C-4.71125 16.195625 -4.4225 15.39125 -4.125 14.5625 C-3 12 -3 12 -1 11 C-0.5316735 8.41394668 -0.5316735 8.41394668 -0.375 5.4375 C-0.30023438 4.42558594 -0.22546875 3.41367188 -0.1484375 2.37109375 C-0.09945312 1.58863281 -0.05046875 0.80617188 0 0 Z " fill="#F96F18" transform="translate(179,120)"/>
<path d="M0 0 C-0.56589844 0.2475 -1.13179687 0.495 -1.71484375 0.75 C-4.44117812 2.28326362 -6.07746297 3.50192641 -8 6 C-8.74579993 10.24466705 -8.88282307 14.22240049 -8.8671875 18.515625 C-9 22 -9 22 -11 24 C-11.99 24 -12.98 24 -14 24 C-14 23.34 -14 22.68 -14 22 C-13.34 22 -12.68 22 -12 22 C-12.01160156 20.89140625 -12.02320313 19.7828125 -12.03515625 18.640625 C-12.04453792 17.17708502 -12.05363771 15.71354322 -12.0625 14.25 C-12.07506836 13.15558594 -12.07506836 13.15558594 -12.08789062 12.0390625 C-12.1199406 4.98806861 -12.1199406 4.98806861 -11 2 C-6.92989212 -0.22704016 -4.44681165 -1.4430051 0 0 Z " fill="#A96F53" transform="translate(188,148)"/>
<path d="M0 0 C2.64 0 5.28 0 8 0 C8.33 0.66 8.66 1.32 9 2 C9.99 2.33 10.98 2.66 12 3 C12.103125 3.639375 12.20625 4.27875 12.3125 4.9375 C12.6528125 5.9584375 12.6528125 5.9584375 13 7 C14.99571323 7.67939174 16.99594773 8.34561559 19 9 C20.0625 10.875 20.0625 10.875 21 13 C23.53442406 15.22816986 23.53442406 15.22816986 26 17 C24.2265625 17.6796875 24.2265625 17.6796875 22 18 C20.1484375 16.8203125 20.1484375 16.8203125 18.375 15.125 C15.89368731 12.77069571 15.89368731 12.77069571 13 11 C13 10.34 13 9.68 13 9 C12.43796875 8.73316406 11.8759375 8.46632812 11.296875 8.19140625 C8.8327333 6.91323751 6.56107799 5.47444239 4.25 3.9375 C3.45078125 3.41027344 2.6515625 2.88304687 1.828125 2.33984375 C1.22484375 1.89769531 0.6215625 1.45554688 0 1 C0 0.67 0 0.34 0 0 Z " fill="#B57958" transform="translate(150,153)"/>
<path d="M0 0 C0.66 0 1.32 0 2 0 C1.67 5.94 1.34 11.88 1 18 C-4.625 15.75 -4.625 15.75 -7 12 C-5.68 11.67 -4.36 11.34 -3 11 C-3 8.36 -3 5.72 -3 3 C-2.34 3 -1.68 3 -1 3 C-0.67 2.01 -0.34 1.02 0 0 Z " fill="#E96D1F" transform="translate(175,151)"/>
<path d="M0 0 C3.71368887 1.23789629 4.77354181 2.85224877 7 6 C7 6.66 7 7.32 7 8 C6.34 8 5.68 8 5 8 C4.9175 8.61875 4.835 9.2375 4.75 9.875 C4 12 4 12 2.1875 13.25 C0 14 0 14 -4 14 C-4 14.66 -4 15.32 -4 16 C-3.01 16.33 -2.02 16.66 -1 17 C-3.6855594 19.6855594 -6.37621328 20.06049974 -10 21 C-9.34 19.68 -8.68 18.36 -8 17 C-7.34 17 -6.68 17 -6 17 C-5.9175 16.38253906 -5.835 15.76507813 -5.75 15.12890625 C-5 13 -5 13 -3.1875 11.83984375 C-2.465625 11.54207031 -1.74375 11.24429688 -1 10.9375 C1.1645573 10.08867362 1.1645573 10.08867362 3 9 C3.33 8.01 3.66 7.02 4 6 C2.10770734 3.36375566 2.10770734 3.36375566 0 1 C0 0.67 0 0.34 0 0 Z " fill="#E86C21" transform="translate(192,128)"/>
<path d="M0 0 C0.66 0.33 1.32 0.66 2 1 C-0.85064637 4.02881176 -3.81255092 6.77504073 -7.0625 9.375 C-8.03896484 10.16003906 -8.03896484 10.16003906 -9.03515625 10.9609375 C-11 12 -11 12 -13.24609375 11.6640625 C-13.82488281 11.44492188 -14.40367187 11.22578125 -15 11 C-14.00419922 10.31164062 -14.00419922 10.31164062 -12.98828125 9.609375 C-8.55201036 6.52665246 -4.15375984 3.46146654 0 0 Z " fill="#9F6A5B" transform="translate(171,132)"/>
<path d="M0 0 C0.33 0 0.66 0 1 0 C1.22114415 2.79119779 1.42743301 5.5821212 1.625 8.375 C1.68945312 9.1690625 1.75390625 9.963125 1.8203125 10.78125 C1.96058587 12.85028224 1.98758237 14.92625536 2 17 C1.34 17.66 0.68 18.32 0 19 C-0.99 19 -1.98 19 -3 19 C-3 18.34 -3 17.68 -3 17 C-2.34 17 -1.68 17 -1 17 C-1.01160156 15.85660156 -1.02320313 14.71320313 -1.03515625 13.53515625 C-1.04453288 12.04427246 -1.05363321 10.55338691 -1.0625 9.0625 C-1.07087891 8.30775391 -1.07925781 7.55300781 -1.08789062 6.77539062 C-1.09652441 4.85005687 -1.05224333 2.92464419 -1 1 C-0.67 0.67 -0.34 0.34 0 0 Z " fill="#904222" transform="translate(177,153)"/>
<path d="M0 0 C1.65 0 3.3 0 5 0 C5.66 1.32 6.32 2.64 7 4 C5.68 3.67 4.36 3.34 3 3 C1.9458482 6.16245541 1.68724328 8.86948218 1.4375 12.1875 C1.35371094 13.27417969 1.26992187 14.36085938 1.18359375 15.48046875 C1.12300781 16.31191406 1.06242188 17.14335937 1 18 C0.34 17.34 -0.32 16.68 -1 16 C-0.98252073 13.24410223 -0.86136729 10.61213324 -0.625 7.875 C-0.56828125 7.12089844 -0.5115625 6.36679688 -0.453125 5.58984375 C-0.3115535 3.72581904 -0.15700041 1.86278863 0 0 Z " fill="#6B3B2E" transform="translate(175,113)"/>
<path d="M0 0 C0.33 0 0.66 0 1 0 C1.08150744 2.06183633 1.1394194 4.12461349 1.1875 6.1875 C1.22230469 7.33605469 1.25710937 8.48460938 1.29296875 9.66796875 C0.97173101 13.32151268 0.26864974 15.1431818 -2 18 C-5.1875 18.8125 -5.1875 18.8125 -8 19 C-6.76302083 17.53515625 -5.52604167 16.0703125 -4.2890625 14.60546875 C-1.57990617 11.23133769 -0.70625021 9.06354435 -0.375 4.8125 C-0.30023438 3.91144531 -0.22546875 3.01039062 -0.1484375 2.08203125 C-0.09945312 1.39496094 -0.05046875 0.70789063 0 0 Z " fill="#AF5734" transform="translate(176,119)"/>
<path d="M0 0 C0.33 0.99 0.66 1.98 1 3 C-2.21473372 6.72909112 -5.48533983 8.16069401 -10 10 C-10.66 10.66 -11.32 11.32 -12 12 C-14.125 11.625 -14.125 11.625 -16 11 C-11.17375515 7.15870308 -8.16456476 5.37742233 -2 5 C-1.34 3.35 -0.68 1.7 0 0 Z " fill="#DD6A2D" transform="translate(176,132)"/>
<path d="M0 0 C2.64 0 5.28 0 8 0 C8.33 0.66 8.66 1.32 9 2 C9.99 2.33 10.98 2.66 12 3 C11.67 3.99 11.34 4.98 11 6 C9.72554546 5.57316368 8.45554118 5.13302798 7.1875 4.6875 C6.47980469 4.44386719 5.77210938 4.20023438 5.04296875 3.94921875 C2.85527627 2.93275742 1.59103282 1.79179406 0 0 Z " fill="#C77449" transform="translate(150,153)"/>
<path d="M0 0 C7.45762712 4.74576271 7.45762712 4.74576271 10 8 C9.9375 10.1875 9.9375 10.1875 9 12 C8.01 12.33 7.02 12.66 6 13 C6 12.34 6 11.68 6 11 C6.66 11 7.32 11 8 11 C7.73323796 9.01508358 7.73323796 9.01508358 7 7 C6.01 6.67 5.02 6.34 4 6 C1.8125 4.0625 1.8125 4.0625 0 2 C0 1.34 0 0.68 0 0 Z " fill="#CC6833" transform="translate(191,125)"/>
<path d="M0 0 C1.65 0.33 3.3 0.66 5 1 C5.33 1.66 5.66 2.32 6 3 C5.01 3 4.02 3 3 3 C3 2.34 3 1.68 3 1 C2.34 1 1.68 1 1 1 C1.11859375 1.75925781 1.2371875 2.51851563 1.359375 3.30078125 C1.48828125 4.29464844 1.6171875 5.28851563 1.75 6.3125 C1.88921875 7.29863281 2.0284375 8.28476563 2.171875 9.30078125 C2.11515625 10.19152344 2.0584375 11.08226562 2 12 C0.68 12.99 -0.64 13.98 -2 15 C-1.34 10.05 -0.68 5.1 0 0 Z " fill="#EE6F20" transform="translate(179,120)"/>
<path d="M0 0 C0.66 0.33 1.32 0.66 2 1 C2.33 0.67 2.66 0.34 3 0 C3.66 0 4.32 0 5 0 C5 1.65 5 3.3 5 5 C3.35 5 1.7 5 0 5 C-0.5625 3.0625 -0.5625 3.0625 -1 1 C-0.67 0.67 -0.34 0.34 0 0 Z " fill="#AE5C32" transform="translate(150,148)"/>
<path d="M0 0 C-0.99 0.33 -1.98 0.66 -3 1 C-3 1.66 -3 2.32 -3 3 C-7.625 5.125 -7.625 5.125 -11 4 C-11 3.34 -11 2.68 -11 2 C-7.17679443 0.57741188 -4.08718695 -0.24042276 0 0 Z " fill="#BD7A58" transform="translate(199,140)"/>
<path d="M0 0 C0.66 0 1.32 0 2 0 C1.6875 2.375 1.6875 2.375 1 5 C-2 7 -2 7 -4.1875 6.625 C-4.785625 6.41875 -5.38375 6.2125 -6 6 C-2.25 3 -2.25 3 0 3 C0 2.01 0 1.02 0 0 Z " fill="#975940" transform="translate(202,133)"/>
<path d="M0 0 C-2.57404971 3.86107457 -4.61020259 3.94319692 -9 5 C-6.81610567 0.16423399 -5.20641855 -0.13701101 0 0 Z " fill="#B75A29" transform="translate(191,144)"/>
<path d="M0 0 C0.66 0.33 1.32 0.66 2 1 C-0.31 3.31 -2.62 5.62 -5 8 C-5.33 7.34 -5.66 6.68 -6 6 C-2.25 1.125 -2.25 1.125 0 0 Z " fill="#535353" transform="translate(277,174)"/>
<path d="M0 0 C2.95409701 1.37154504 5.44008376 2.98863724 8 5 C6.25 5.75 6.25 5.75 4 6 C1.75 4.1875 1.75 4.1875 0 2 C0 1.34 0 0.68 0 0 Z " fill="#97644C" transform="translate(168,165)"/>
<path d="M0 0 C0.33 0 0.66 0 1 0 C1.22162329 1.62324086 1.42689803 3.248721 1.625 4.875 C1.74101562 5.77992188 1.85703125 6.68484375 1.9765625 7.6171875 C1.98429688 8.40351563 1.99203125 9.18984375 2 10 C1.34 10.66 0.68 11.32 0 12 C-0.99 12 -1.98 12 -3 12 C-3 11.34 -3 10.68 -3 10 C-2.34 9.67 -1.68 9.34 -1 9 C-0.53348793 6.87423218 -0.53348793 6.87423218 -0.375 4.4375 C-0.30023438 3.61121094 -0.22546875 2.78492188 -0.1484375 1.93359375 C-0.09945312 1.29550781 -0.05046875 0.65742188 0 0 Z " fill="#3B1306" transform="translate(177,160)"/>
<path d="M0 0 C0.66 0 1.32 0 2 0 C1.25675659 2.39489543 0.52942646 3.70777616 -1.69140625 4.93359375 C-3.44073501 5.67219923 -5.21934149 6.34049685 -7 7 C-7 6.01 -7 5.02 -7 4 C-5.824375 3.566875 -5.824375 3.566875 -4.625 3.125 C-1.90328368 2.15087746 -1.90328368 2.15087746 0 0 Z " fill="#EE7022" transform="translate(167,140)"/>
<path d="M0 0 C-0.33 0.66 -0.66 1.32 -1 2 C-1.61875 2.144375 -2.2375 2.28875 -2.875 2.4375 C-5.36710392 3.09717457 -6.3329446 4.08288629 -8 6 C-8 5.34 -8 4.68 -8 4 C-8.66 3.67 -9.32 3.34 -10 3 C-6.48812804 0.59185923 -4.27343092 -0.36629408 0 0 Z " fill="#666666" transform="translate(326,172)"/>
<path d="M0 0 C0.33 0 0.66 0 1 0 C1 2.64 1 5.28 1 8 C-3.875 6.25 -3.875 6.25 -5 4 C-2.525 4.495 -2.525 4.495 0 5 C0 3.35 0 1.7 0 0 Z " fill="#C66433" transform="translate(175,161)"/>
<path d="" fill="#FFFFFF" transform="translate(0,0)"/>
<path d="" fill="#FFFFFF" transform="translate(0,0)"/>
<path d="" fill="#FFFFFF" transform="translate(0,0)"/>
<path d="" fill="#FFFFFF" transform="translate(0,0)"/>
<path d="" fill="#FFFFFF" transform="translate(0,0)"/>
<path d="" fill="#FFFFFF" transform="translate(0,0)"/>
<path d="" fill="#FFFFFF" transform="translate(0,0)"/>
<path d="" fill="#FFFFFF" transform="translate(0,0)"/>
<path d="" fill="#FFFFFF" transform="translate(0,0)"/>
<path d="" fill="#FFFFFF" transform="translate(0,0)"/>
<path d="" fill="#FFFFFF" transform="translate(0,0)"/>
<path d="" fill="#FFFFFF" transform="translate(0,0)"/>
<path d="" fill="#FFFFFF" transform="translate(0,0)"/>
<path d="" fill="#FFFFFF" transform="translate(0,0)"/>
<path d="" fill="#FFFFFF" transform="translate(0,0)"/>
<path d="" fill="#FFFFFF" transform="translate(0,0)"/>
<path d="" fill="#FFFFFF" transform="translate(0,0)"/>
<path d="" fill="#FFFFFF" transform="translate(0,0)"/>
<path d="" fill="#FFFFFF" transform="translate(0,0)"/>
<path d="" fill="#FFFFFF" transform="translate(0,0)"/>
<path d="" fill="#FFFFFF" transform="translate(0,0)"/>
<path d="" fill="#FFFFFF" transform="translate(0,0)"/>
<path d="" fill="#FFFFFF" transform="translate(0,0)"/>
<path d="" fill="#FFFFFF" transform="translate(0,0)"/>
<path d="" fill="#FFFFFF" transform="translate(0,0)"/>
<path d="" fill="#FFFFFF" transform="translate(0,0)"/>
<path d="" fill="#FFFFFF" transform="translate(0,0)"/>
<path d="" fill="#FFFFFF" transform="translate(0,0)"/>
<path d="" fill="#FFFFFF" transform="translate(0,0)"/>
<path d="" fill="#FFFFFF" transform="translate(0,0)"/>
<path d="" fill="#FFFFFF" transform="translate(0,0)"/>
<path d="" fill="#FFFFFF" transform="translate(0,0)"/>
<path d="" fill="#FFFFFF" transform="translate(0,0)"/>
<path d="" fill="#FFFFFF" transform="translate(0,0)"/>
<path d="" fill="#FFFFFF" transform="translate(0,0)"/>
<path d="" fill="#FFFFFF" transform="translate(0,0)"/>
<path d="" fill="#FFFFFF" transform="translate(0,0)"/>
<path d="" fill="#FFFFFF" transform="translate(0,0)"/>
<path d="" fill="#FFFFFF" transform="translate(0,0)"/>
<path d="" fill="#FFFFFF" transform="translate(0,0)"/>
<path d="" fill="#FFFFFF" transform="translate(0,0)"/>
<path d="" fill="#FFFFFF" transform="translate(0,0)"/>
<path d="" fill="#FFFFFF" transform="translate(0,0)"/>
<path d="" fill="#FFFFFF" transform="translate(0,0)"/>
<path d="" fill="#FFFFFF" transform="translate(0,0)"/>
<path d="" fill="#FFFFFF" transform="translate(0,0)"/>
<path d="" fill="#FFFFFF" transform="translate(0,0)"/>
<path d="" fill="#FFFFFF" transform="translate(0,0)"/>
<path d="" fill="#FFFFFF" transform="translate(0,0)"/>
<path d="" fill="#FFFFFF" transform="translate(0,0)"/>
<path d="" fill="#FFFFFF" transform="translate(0,0)"/>
<path d="" fill="#FFFFFF" transform="translate(0,0)"/>
<path d="" fill="#FFFFFF" transform="translate(0,0)"/>
<path d="" fill="#FFFFFF" transform="translate(0,0)"/>
<path d="" fill="#FFFFFF" transform="translate(0,0)"/>
<path d="" fill="#FFFFFF" transform="translate(0,0)"/>
<path d="" fill="#FFFFFF" transform="translate(0,0)"/>
<path d="" fill="#FFFFFF" transform="translate(0,0)"/>
<path d="" fill="#FFFFFF" transform="translate(0,0)"/>
<path d="" fill="#FFFFFF" transform="translate(0,0)"/>
<path d="" fill="#FFFFFF" transform="translate(0,0)"/>
<path d="" fill="#FFFFFF" transform="translate(0,0)"/>
</svg>
