<?xml version="1.0" encoding="UTF-8"?>
<svg version="1.1" xmlns="http://www.w3.org/2000/svg" viewBox="148 112 333 112">
<path d="M0 0 C4.43082166 0.36923514 6.70142229 2.13544567 10 5 C10.99 5.66 11.98 6.32 13 7 C13 7.66 13 8.32 13 9 C13.82757813 9.37705078 13.82757813 9.37705078 14.671875 9.76171875 C17.41452071 11.22047494 19.78214553 12.9255294 22.25 14.8125 C23.14203125 15.47894531 24.0340625 16.14539063 24.953125 16.83203125 C27 19 27 19 27.6015625 21.51953125 C26.74615711 25.04668984 25.11194658 25.88094425 22.125 27.875 C20.63033203 28.89400391 20.63033203 28.89400391 19.10546875 29.93359375 C18.08066406 30.61550781 17.05585938 31.29742187 16 32 C14.14333402 33.30896208 12.28897035 34.62119918 10.4375 35.9375 C6.2687747 38.86561265 6.2687747 38.86561265 4 40 C3.53272148 41.83528863 3.53272148 41.83528863 3.3671875 44.03515625 C3.28339844 44.84404297 3.19960937 45.65292969 3.11328125 46.48632812 C2.99533203 47.7615332 2.99533203 47.7615332 2.875 49.0625 C2.78863281 49.91650391 2.70226562 50.77050781 2.61328125 51.65039062 C2.40052772 53.76610633 2.19920047 55.88296524 2 58 C-1.77836889 58.58238017 -3.00530631 57.99639838 -6.234375 55.8046875 C-7.41567644 54.83954904 -8.58719467 53.86234447 -9.75 52.875 C-10.98587861 51.85645267 -12.22416062 50.84081447 -13.46484375 49.828125 C-14.06538574 49.33763672 -14.66592773 48.84714844 -15.28466797 48.34179688 C-18.16191016 46.09111041 -21.2606051 44.22774939 -24.42578125 42.4140625 C-26 41 -26 41 -26.98046875 38.5859375 C-27 36 -27 36 -25.40625 33.91015625 C-22.85896737 31.8880439 -20.27161979 30.13930501 -17.5 28.4375 C-14.83928707 26.79648337 -12.25512789 25.19718512 -9.78125 23.28515625 C-8 22 -8 22 -6 22 C-6 21.34 -6 20.68 -6 20 C-4.68 19.67 -3.36 19.34 -2 19 C-1.93941406 17.71222656 -1.87882812 16.42445313 -1.81640625 15.09765625 C-1.73201753 13.41925841 -1.6473687 11.74087364 -1.5625 10.0625 C-1.52318359 9.21236328 -1.48386719 8.36222656 -1.44335938 7.48632812 C-1.40146484 6.67744141 -1.35957031 5.86855469 -1.31640625 5.03515625 C-1.27974854 4.2862915 -1.24309082 3.53742676 -1.20532227 2.76586914 C-1 1 -1 1 0 0 Z " fill="#FB6D14" transform="translate(176,113)"/>
<path d="M0 0 C1.6554073 1.6554073 1.1585617 3.62045139 1.18945312 5.89941406 C1.20617065 6.94429993 1.22288818 7.98918579 1.2401123 9.06573486 C1.25368774 10.20419861 1.26726318 11.34266235 1.28125 12.515625 C1.30886414 14.2603006 1.30886414 14.2603006 1.33703613 16.04022217 C1.39600151 19.77676151 1.44869476 23.51334809 1.5 27.25 C1.56767606 32.15113795 1.64143311 37.05213079 1.71875 41.953125 C1.73232544 43.08349182 1.74590088 44.21385864 1.7598877 45.378479 C1.77660522 46.43597351 1.79332275 47.49346802 1.81054688 48.58300781 C1.82307495 49.51042786 1.83560303 50.4378479 1.84851074 51.39337158 C2.00070643 54.01215537 2.42275509 56.44411427 3 59 C-2 59 -7 59 -12 59 C-13.8253125 59.2784375 -13.8253125 59.2784375 -15.6875 59.5625 C-21.2391708 60.24625357 -26.04186826 60.50275227 -30.6875 56.9375 C-31.450625 55.968125 -32.21375 54.99875 -33 54 C-33.46664063 53.443125 -33.93328125 52.88625 -34.4140625 52.3125 C-38.07838929 47.39943615 -38.75345032 43.04708106 -38.4921875 36.9765625 C-37.58604463 31.49655564 -35.28182838 26.87092442 -30.9609375 23.328125 C-25.62723403 19.71565652 -20.31478275 19.30178012 -14 20 C-11.69140625 21.015625 -11.69140625 21.015625 -10 22 C-10.1141866 20.06183265 -10.24173423 18.12444901 -10.375 16.1875 C-10.44460938 15.10855469 -10.51421875 14.02960938 -10.5859375 12.91796875 C-10.81195733 9.81373814 -10.81195733 9.81373814 -13 7 C-13 5.68 -13 4.36 -13 3 C-4.33365759 -0.52529183 -4.33365759 -0.52529183 0 0 Z M-25 27 C-28.24238885 33.48477771 -27.76788063 41.11588802 -25.8125 47.9375 C-24.69911594 50.89606985 -24.07668814 51.9334024 -21.625 54.0625 C-18.79165493 55.07440895 -16.97508748 55.46975066 -14 55 C-11.22117438 53.01512456 -10.60105181 51.27895229 -10 48 C-9.85454676 45.33988405 -9.76940048 42.72279074 -9.75 40.0625 C-9.729375 39.35931641 -9.70875 38.65613281 -9.6875 37.93164062 C-9.65362546 33.41362394 -10.18823225 30.56726609 -13 27 C-17.09833023 24.26777984 -20.93265194 23.91442561 -25 27 Z " fill="#D5D4D4" transform="translate(306,152)"/>
<path d="M0 0 C0.33 11.55 0.66 23.1 1 35 C1.66 35 2.32 35 3 35 C3.226875 34.38125 3.45375 33.7625 3.6875 33.125 C5 31 5 31 7.5625 30 C10.11943863 29.26812111 10.11943863 29.26812111 10.875 27.1875 C11.12010031 24.50963409 11.12010031 24.50963409 10 20 C14.62 20 19.24 20 24 20 C23.505 22.475 23.505 22.475 23 25 C22.21625 25.0825 21.4325 25.165 20.625 25.25 C17.87895793 25.70280998 17.87895793 25.70280998 16.9375 27.875 C16.628125 28.57625 16.31875 29.2775 16 30 C13.875 31.75 13.875 31.75 12 33 C13.18854293 35.57517635 14.5205702 37.76554442 16.125 40.125 C18 43 18 43 18 45 C18.99 45.33 19.98 45.66 21 46 C22.36363208 47.97946592 23.69418644 49.9819245 25 52 C26.29682374 53.36886951 27.61823134 54.7169291 29 56 C28.505 56.99 28.505 56.99 28 58 C22.72 58 17.44 58 12 58 C12 56.68 12 55.36 12 54 C10.74267113 50.8994026 8.90336274 48.39569054 6.875 45.75 C6.33617187 45.04359375 5.79734375 44.3371875 5.2421875 43.609375 C4.83226562 43.07828125 4.42234375 42.5471875 4 42 C3.01 42.66 2.02 43.32 1 44 C0.4459433 49.88489457 0.4459433 49.88489457 3 55 C3 55.99 3 56.98 3 58 C-2.61 58 -8.22 58 -14 58 C-13 53 -13 53 -12 52 C-11.89182787 50.66557147 -11.85101273 49.32556701 -11.83886719 47.98681641 C-11.82925964 47.13568268 -11.8196521 46.28454895 -11.80975342 45.40762329 C-11.80550354 44.48162323 -11.80125366 43.55562317 -11.796875 42.6015625 C-11.79117493 41.65566254 -11.78547485 40.70976257 -11.77960205 39.73519897 C-11.77013636 37.7294019 -11.76361187 35.72358916 -11.75976562 33.71777344 C-11.75006286 30.64490674 -11.71905542 27.57270944 -11.6875 24.5 C-11.68097004 22.55469149 -11.67571954 20.60937817 -11.671875 18.6640625 C-11.6533548 17.2811351 -11.6533548 17.2811351 -11.63446045 15.87026978 C-11.63746155 15.01283173 -11.64046265 14.15539368 -11.64355469 13.27197266 C-11.63990906 12.51776031 -11.63626343 11.76354797 -11.63250732 10.98648071 C-12.09599335 8.4811082 -13.16075467 7.69023539 -15 6 C-15 5.34 -15 4.68 -15 4 C-13.4470724 3.12855131 -11.88214564 2.27846343 -10.3125 1.4375 C-9.44238281 0.96183594 -8.57226562 0.48617187 -7.67578125 -0.00390625 C-5 -1 -5 -1 0 0 Z " fill="#DEDEDE" transform="translate(199,153)"/>
<path d="M0 0 C0.71929687 0.00193359 1.43859375 0.00386719 2.1796875 0.00585938 C7.32874543 0.04760849 12.3352536 0.39610766 17.4375 1.125 C17.4375 2.775 17.4375 4.425 17.4375 6.125 C16.4475 6.455 15.4575 6.785 14.4375 7.125 C14.9325 8.0840625 14.9325 8.0840625 15.4375 9.0625 C17.19990082 14.45985251 17.15068418 19.25713666 15.125 24.5625 C13.4375 27.125 13.4375 27.125 10.4375 29.125 C11.406875 29.90875 12.37625 30.6925 13.375 31.5 C16.25702607 33.83014874 17.29622561 35.08898783 17.8125 38.875 C17.3225547 43.12119258 15.64249342 45.46202753 12.4375 48.125 C5.33788846 51.92836332 -2.96861738 52.46520104 -10.8125 50.5859375 C-14.44502104 49.16111244 -17.42006659 47.38149878 -19.5625 44.125 C-19.88231404 41.09463091 -19.79590713 38.15929271 -19.5625 35.125 C-17.3125 34.375 -17.3125 34.375 -14.5625 34.125 C-10.83007779 36.79101586 -9.7452397 39.78828775 -8.5625 44.125 C-6.95929026 44.32051338 -5.35487014 44.50611983 -3.75 44.6875 C-2.85667969 44.79191406 -1.96335937 44.89632812 -1.04296875 45.00390625 C1.57125572 45.28158709 1.57125572 45.28158709 4.4375 44.125 C5.58102916 41.83794169 5.54084439 40.53235238 5.5 38 C5.479375 36.72125 5.45875 35.4425 5.4375 34.125 C2.17373573 33.03707858 -0.3201511 33.05629295 -3.75 33 C-9.86674001 32.59677356 -12.89241708 31.12283555 -17.171875 26.81640625 C-20.64781297 22.58865024 -19.9477841 17.74933593 -19.91015625 12.4921875 C-19.5625 9.125 -19.5625 9.125 -17.375 5.9375 C-16.446875 5.339375 -15.51875 4.74125 -14.5625 4.125 C-13.675625 3.5475 -12.78875 2.97 -11.875 2.375 C-7.74326278 0.14162853 -4.64449014 -0.02950221 0 0 Z M-8.5625 7.125 C-10.42913868 12.72491603 -10.22864542 17.31016968 -7.6875 22.5625 C-6.21445694 25.42687034 -6.21445694 25.42687034 -3.5625 27.125 C0.48892119 27.38360135 1.98087669 27.42941554 5.4375 25.125 C6.66968868 19.53275907 6.67949854 15.52617829 4.4375 10.125 C1.36717711 6.20001202 1.36717711 6.20001202 -3.1875 4.6875 C-5.81858714 5.01060195 -5.81858714 5.01060195 -8.5625 7.125 Z " fill="#DBDBDB" transform="translate(397.5625,171.875)"/>
<path d="M0 0 C1.32 0 2.64 0 4 0 C4.33 -0.33 4.66 -0.66 5 -1 C9.68931329 -1.4515635 13.78112343 -1.53630569 18.125 0.375 C19.053125 1.179375 19.053125 1.179375 20 2 C20 2.66 20 3.32 20 4 C20.99 4.33 21.98 4.66 23 5 C26.03009182 10.74139781 26.60720486 17.38416562 27.125 23.75 C27.27136345 25.39081133 27.41974158 27.03144442 27.5703125 28.671875 C27.62977051 29.3844043 27.68922852 30.09693359 27.75048828 30.83105469 C28.02770535 33.24083597 28.52428616 35.62143079 29 38 C23.72 38 18.44 38 13 38 C13.33 36.35 13.66 34.7 14 33 C14.21059654 29.5433852 14.18509551 26.0874631 14.1875 22.625 C14.20586914 21.24441406 14.20586914 21.24441406 14.22460938 19.8359375 C14.2360736 14.48596454 13.76282486 10.05854092 12 5 C7.8381981 4.9112079 7.8381981 4.9112079 4 6 C0.83885601 11.40087829 0.56207092 16.15644077 0.6875 22.3125 C0.68427734 23.12267578 0.68105469 23.93285156 0.67773438 24.76757812 C0.53421013 29.36304352 0.53421013 29.36304352 3 33 C3 34.65 3 36.3 3 38 C-2.28 38 -7.56 38 -13 38 C-12 33 -12 33 -11 32 C-10.74843731 28.36100825 -10.81477774 24.70916327 -10.8125 21.0625 C-10.80025391 20.03447266 -10.78800781 19.00644531 -10.77539062 17.94726562 C-10.77345703 16.96564453 -10.77152344 15.98402344 -10.76953125 14.97265625 C-10.76542236 14.06781494 -10.76131348 13.16297363 -10.75708008 12.23071289 C-10.78658703 9.79581222 -10.78658703 9.79581222 -13 8 C-13.125 5.375 -13.125 5.375 -13 3 C-4.95462795 -1.65154265 -4.95462795 -1.65154265 0 0 Z " fill="#DADADA" transform="translate(346,173)"/>
<path d="M0 0 C0.33 0.66 0.66 1.32 1 2 C1.804375 1.67 2.60875 1.34 3.4375 1 C8.70134549 -0.47757066 13.61369354 -0.97621628 18.75 1.125 C23.63933422 5.19944518 26.17524433 7.88742875 26.85546875 14.29296875 C26.98865083 16.25641544 27.09878118 18.22154238 27.1875 20.1875 C27.29846262 22.16059396 27.41663289 24.13329946 27.54296875 26.10546875 C27.58446045 26.97324951 27.62595215 27.84103027 27.66870117 28.73510742 C27.87535757 31.27717123 27.87535757 31.27717123 30 34 C30 35.65 30 37.3 30 39 C24.72 39 19.44 39 14 39 C15 34 15 34 17 31 C17.12660474 22.88674609 15.7922501 14.88590043 14 7 C10.7 7 7.4 7 4 7 C2.42067591 11.73797228 2.77417612 16.53785093 2.75 21.5 C2.729375 22.55832031 2.70875 23.61664063 2.6875 24.70703125 C2.68234375 25.72152344 2.6771875 26.73601562 2.671875 27.78125 C2.6625293 28.71001953 2.65318359 29.63878906 2.64355469 30.59570312 C3.05984919 33.40369507 3.81302407 34.26485474 6 36 C5.67 36.99 5.34 37.98 5 39 C-0.61 39 -6.22 39 -12 39 C-11 35 -11 35 -9 32 C-8.57130309 28.70189181 -8.6757413 25.38550971 -8.6875 22.0625 C-8.67138672 21.15564453 -8.65527344 20.24878906 -8.63867188 19.31445312 C-8.63802734 18.43853516 -8.63738281 17.56261719 -8.63671875 16.66015625 C-8.63373779 15.86230713 -8.63075684 15.06445801 -8.62768555 14.24243164 C-9.08502668 11.48788848 -10.27737266 10.15264173 -12 8 C-11.9296875 5.890625 -11.9296875 5.890625 -11 4 C-9.2578125 2.734375 -9.2578125 2.734375 -7.125 1.75 C-6.42632812 1.41484375 -5.72765625 1.0796875 -5.0078125 0.734375 C-3 0 -3 0 0 0 Z " fill="#DFDFDF" transform="translate(451,172)"/>
<path d="M0 0 C5.28305182 3.08357718 8.25563475 6.53776224 10.5625 12.25 C12.36870718 19.35441492 10.97069925 24.78821182 7.5625 31.25 C4.99104202 34.73303304 2.42150011 36.76678308 -1.796875 37.86328125 C-4.37810461 38.19595525 -6.83604099 38.28585472 -9.4375 38.25 C-10.22769531 38.24871094 -11.01789063 38.24742187 -11.83203125 38.24609375 C-17.47250046 37.94821548 -21.50294476 36.36850847 -25.4375 32.25 C-29.06958163 27.18274934 -30.70948616 21.47304327 -30.4375 15.25 C-28.94706347 7.91652468 -24.58233903 3.34655936 -18.4375 -0.75 C-12.43439484 -2.75103505 -5.75652447 -2.75923635 0 0 Z M-17.4375 5.25 C-20.05628268 9.57099142 -20.06242608 14.35860325 -19.4375 19.25 C-18.11020576 24.14305226 -16.48005574 28.09770156 -13.0625 31.875 C-9.83535657 33.56540846 -8.03036089 33.86155079 -4.4375 33.25 C-2.13283058 31.78677339 -2.13283058 31.78677339 -0.4375 29.25 C0.02133786 26.33012273 0.23003375 23.91371947 0.1875 21 C0.17984619 20.23945313 0.17219238 19.47890625 0.16430664 18.6953125 C-0.04729914 13.3552771 -0.86056151 9.5057673 -4.65234375 5.5078125 C-8.68133448 2.66900503 -13.51365676 2.05279439 -17.4375 5.25 Z " fill="#DADADA" transform="translate(254.4375,173.75)"/>
<path d="M0 0 C1.48320952 2.96641903 1.20408729 5.7124113 1.28125 9.01953125 C1.30886414 10.06290901 1.30886414 10.06290901 1.33703613 11.12736511 C1.39582443 13.35565681 1.44858294 15.58402677 1.5 17.8125 C1.56793271 20.73582873 1.64170484 23.6589302 1.71875 26.58203125 C1.74904297 27.88374268 1.77933594 29.1854541 1.81054688 30.52661133 C1.93258482 34.28007516 1.93258482 34.28007516 3 39 C-2.28 39 -7.56 39 -13 39 C-13 37.35 -13 35.7 -13 34 C-11.515 33.505 -11.515 33.505 -10 33 C-10.10954408 29.37435813 -10.2402496 25.74978569 -10.375 22.125 C-10.4059375 21.09246094 -10.436875 20.05992187 -10.46875 18.99609375 C-10.50742187 18.00996094 -10.54609375 17.02382812 -10.5859375 16.0078125 C-10.6173584 15.09660645 -10.6487793 14.18540039 -10.68115234 13.24658203 C-10.79882511 10.80068814 -10.79882511 10.80068814 -13 9 C-13.0625 6.625 -13.0625 6.625 -12 4 C-7.93206408 1.10550713 -5.11091701 -0.61950509 0 0 Z " fill="#D3D3D3" transform="translate(326,172)"/>
<path d="M0 0 C1.32 0 2.64 0 4 0 C4.33 0.66 4.66 1.32 5 2 C3.35 3.65 1.7 5.3 0 7 C0.66 7 1.32 7 2 7 C1.83886719 7.79921875 1.67773438 8.5984375 1.51171875 9.421875 C0.89615252 13.72613963 0.81600112 17.9086082 0.8125 22.25 C0.80025391 23.0646875 0.78800781 23.879375 0.77539062 24.71875 C0.77018761 26.81383174 0.8770943 28.90851996 1 31 C1.66 31.66 2.32 32.32 3 33 C3 34.65 3 36.3 3 38 C-2.28 38 -7.56 38 -13 38 C-12 33 -12 33 -11 32 C-10.74843731 28.36100825 -10.81477774 24.70916327 -10.8125 21.0625 C-10.80025391 20.03447266 -10.78800781 19.00644531 -10.77539062 17.94726562 C-10.77345703 16.96564453 -10.77152344 15.98402344 -10.76953125 14.97265625 C-10.76542236 14.06781494 -10.76131348 13.16297363 -10.75708008 12.23071289 C-10.78658703 9.79581222 -10.78658703 9.79581222 -13 8 C-13.125 5.375 -13.125 5.375 -13 3 C-4.95462795 -1.65154265 -4.95462795 -1.65154265 0 0 Z " fill="#E2E2E2" transform="translate(346,173)"/>
<path d="M0 0 C0.28875 0.639375 0.5775 1.27875 0.875 1.9375 C1.82823451 4.15206079 1.82823451 4.15206079 4 5 C3.83918945 5.71333496 3.67837891 6.42666992 3.51269531 7.16162109 C2.64633101 11.9579789 2.7740703 16.76279955 2.75 21.625 C2.729375 22.67429688 2.70875 23.72359375 2.6875 24.8046875 C2.68234375 25.81015625 2.6771875 26.815625 2.671875 27.8515625 C2.6625293 28.76760254 2.65318359 29.68364258 2.64355469 30.62744141 C3.06200637 33.41272457 3.83308583 34.27433535 6 36 C5.67 36.99 5.34 37.98 5 39 C-0.61 39 -6.22 39 -12 39 C-11 35 -11 35 -9 32 C-8.57130309 28.70189181 -8.6757413 25.38550971 -8.6875 22.0625 C-8.67138672 21.15564453 -8.65527344 20.24878906 -8.63867188 19.31445312 C-8.63802734 18.43853516 -8.63738281 17.56261719 -8.63671875 16.66015625 C-8.63373779 15.86230713 -8.63075684 15.06445801 -8.62768555 14.24243164 C-9.08502668 11.48788848 -10.27737266 10.15264173 -12 8 C-11.9296875 5.890625 -11.9296875 5.890625 -11 4 C-9.2578125 2.734375 -9.2578125 2.734375 -7.125 1.75 C-6.42632812 1.41484375 -5.72765625 1.0796875 -5.0078125 0.734375 C-3 0 -3 0 0 0 Z " fill="#E7E7E7" transform="translate(451,172)"/>
<path d="M0 0 C0 10.89 0 21.78 0 33 C1.32 33.66 2.64 34.32 4 35 C4 36.32 4 37.64 4 39 C-1.61 39 -7.22 39 -13 39 C-12 34 -12 34 -11 33 C-10.74798116 29.38194129 -10.81477465 25.7507992 -10.8125 22.125 C-10.80025391 21.10535156 -10.78800781 20.08570313 -10.77539062 19.03515625 C-10.77345703 18.05675781 -10.77152344 17.07835937 -10.76953125 16.0703125 C-10.76542236 15.17070801 -10.76131348 14.27110352 -10.75708008 13.34423828 C-10.84405337 10.72910349 -10.84405337 10.72910349 -13 8 C-13 7.01 -13 6.02 -13 5 C-11.58957044 4.15615325 -10.17135868 3.32530504 -8.75 2.5 C-7.56664062 1.80390625 -7.56664062 1.80390625 -6.359375 1.09375 C-4 0 -4 0 0 0 Z " fill="#E2E2E2" transform="translate(432,172)"/>
<path d="M0 0 C4.43082166 0.36923514 6.70142229 2.13544567 10 5 C10.99 5.66 11.98 6.32 13 7 C13 7.66 13 8.32 13 9 C13.556875 9.226875 14.11375 9.45375 14.6875 9.6875 C17.63246684 11.35896766 19.68156544 13.55276352 22 16 C21.01 16.495 21.01 16.495 20 17 C20 16.34 20 15.68 20 15 C18.96875 14.7525 17.9375 14.505 16.875 14.25 C13.06577248 13.16607347 10.16166044 11.40888414 7 9 C6.505 8.01 6.505 8.01 6 7 C5.01 7 4.02 7 3 7 C2.96261719 7.89203125 2.92523438 8.7840625 2.88671875 9.703125 C2.82097656 10.87359375 2.75523437 12.0440625 2.6875 13.25 C2.62949219 14.41015625 2.57148438 15.5703125 2.51171875 16.765625 C1.97466505 20.16013237 1.42032299 21.60795181 -1 24 C-4.4375 25.1875 -4.4375 25.1875 -8 26 C-8.804375 26.20625 -9.60875 26.4125 -10.4375 26.625 C-10.953125 26.74875 -11.46875 26.8725 -12 27 C-12 27.66 -12 28.32 -12 29 C-15.07115285 31.95303159 -17.8333396 32.52651586 -22 33 C-22.33 34.98 -22.66 36.96 -23 39 C-20.31158141 41.25245881 -18.35358125 42.88213958 -15 44 C-13.62804426 45.29355827 -12.28817344 46.62298702 -11 48 C-11.33 48.99 -11.66 49.98 -12 51 C-12.50789062 50.61328125 -13.01578125 50.2265625 -13.5390625 49.828125 C-14.57160156 49.04695313 -14.57160156 49.04695313 -15.625 48.25 C-16.35074219 47.69957031 -17.07648438 47.14914063 -17.82421875 46.58203125 C-19.65530257 45.25063278 -21.49211444 44.08769146 -23.4375 42.9375 C-26 41 -26 41 -27.125 38.5 C-27 36 -27 36 -25.3359375 34.06640625 C-22.85289781 31.86987114 -20.32379079 30.17133858 -17.5 28.4375 C-14.83928707 26.79648337 -12.25512789 25.19718512 -9.78125 23.28515625 C-8 22 -8 22 -6 22 C-6 21.34 -6 20.68 -6 20 C-4.68 19.67 -3.36 19.34 -2 19 C-1.93941406 17.71222656 -1.87882812 16.42445313 -1.81640625 15.09765625 C-1.73201753 13.41925841 -1.6473687 11.74087364 -1.5625 10.0625 C-1.52318359 9.21236328 -1.48386719 8.36222656 -1.44335938 7.48632812 C-1.40146484 6.67744141 -1.35957031 5.86855469 -1.31640625 5.03515625 C-1.27974854 4.2862915 -1.24309082 3.53742676 -1.20532227 2.76586914 C-1 1 -1 1 0 0 Z " fill="#E06C32" transform="translate(176,113)"/>
<path d="M0 0 C2 1.1875 2 1.1875 4 3 C4.4296875 5.37109375 4.4296875 5.37109375 4 8 C1.9453125 9.9921875 1.9453125 9.9921875 -0.875 11.875 C-1.87144531 12.55433594 -2.86789063 13.23367187 -3.89453125 13.93359375 C-4.91933594 14.61550781 -5.94414062 15.29742187 -7 16 C-8.85666598 17.30896208 -10.71102965 18.62119918 -12.5625 19.9375 C-16.7312253 22.86561265 -16.7312253 22.86561265 -19 24 C-19.46727852 25.83528863 -19.46727852 25.83528863 -19.6328125 28.03515625 C-19.71660156 28.84404297 -19.80039063 29.65292969 -19.88671875 30.48632812 C-20.00466797 31.7615332 -20.00466797 31.7615332 -20.125 33.0625 C-20.21136719 33.91650391 -20.29773438 34.77050781 -20.38671875 35.65039062 C-20.59947228 37.76610633 -20.80079953 39.88296524 -21 42 C-25.1970092 42.35281338 -27.06522073 41.64185432 -30.3125 39 C-31.00988281 38.443125 -31.70726562 37.88625 -32.42578125 37.3125 C-32.94527344 36.879375 -33.46476563 36.44625 -34 36 C-32.02 35.505 -32.02 35.505 -30 35 C-30 35.66 -30 36.32 -30 37 C-27.525 36.505 -27.525 36.505 -25 36 C-24.80664062 35.41992188 -24.61328125 34.83984375 -24.4140625 34.2421875 C-23.87291159 32.61873477 -23.32434324 30.99774124 -22.76953125 29.37890625 C-21.92059134 26.89025959 -21.92059134 26.89025959 -21.3125 23.8125 C-19.59560163 20.13343207 -17.22735632 18.67368408 -13.875 16.4921875 C-11.8702481 15.11491197 -11.8702481 15.11491197 -10.96484375 12.89453125 C-10 11 -10 11 -6.5625 9.8125 C-5.386875 9.544375 -4.21125 9.27625 -3 9 C-2.01 8.67 -1.02 8.34 0 8 C0 5.36 0 2.72 0 0 Z " fill="#955633" transform="translate(199,129)"/>
<path d="M0 0 C2.4375 1.5625 2.4375 1.5625 4 4 C3.78571429 10.21428571 3.78571429 10.21428571 1 13 C-5.94079656 13.67168999 -5.94079656 13.67168999 -9.5625 11.375 C-11 9 -11 9 -11 5.9375 C-10 3 -10 3 -8.3125 1.125 C-5.26389315 -0.35810604 -3.35257076 -0.48891657 0 0 Z " fill="#D7D7D7" transform="translate(324,155)"/>
<path d="M0 0 C3.1875 1.8125 3.1875 1.8125 4.1875 2.8125 C4.22842937 5.14547433 4.22991723 7.47955225 4.1875 9.8125 C3.5275 9.8125 2.8675 9.8125 2.1875 9.8125 C1.8575 10.8025 1.5275 11.7925 1.1875 12.8125 C-2.30436021 13.01395347 -5.01167389 13.16157805 -8.25 11.75 C-9.8125 9.8125 -9.8125 9.8125 -10.4375 6.375 C-9.8125 2.8125 -9.8125 2.8125 -7.25 0.1875 C-3.8125 -1.1875 -3.8125 -1.1875 0 0 Z " fill="#E5E5E5" transform="translate(429.8125,155.1875)"/>
<path d="M0 0 C0.99 0.33 1.98 0.66 3 1 C2.01 1.495 2.01 1.495 1 2 C0.13829746 5.27537197 -0.47612918 8.57410583 -1.12109375 11.8984375 C-1.97641563 14.91677337 -2.4493578 16.23267685 -5 18 C-7.1875 17.6875 -7.1875 17.6875 -9 17 C-9 16.34 -9 15.68 -9 15 C-10.32 15 -11.64 15 -13 15 C-13.33 14.01 -13.66 13.02 -14 12 C-14.99 11.34 -15.98 10.68 -17 10 C-17 9.34 -17 8.68 -17 8 C-17.61875 7.896875 -18.2375 7.79375 -18.875 7.6875 C-21 7 -21 7 -23 4 C-22.13375 4.4640625 -22.13375 4.4640625 -21.25 4.9375 C-19.15705816 5.92583364 -17.25464725 6.5168613 -15 7 C-15 7.99 -15 8.98 -15 10 C-13.35 10.33 -11.7 10.66 -10 11 C-10 11.66 -10 12.32 -10 13 C-8.03243548 12.96877057 -8.03243548 12.96877057 -6 12 C-5.26480478 10.02416285 -4.60927518 8.01822402 -4 6 C-2.71927629 3.9659094 -1.39712274 1.95597184 0 0 Z " fill="#E87126" transform="translate(178,149)"/>
<path d="M0 0 C0.33 0.99 0.66 1.98 1 3 C-0.65 3.66 -2.3 4.32 -4 5 C-4 5.66 -4 6.32 -4 7 C-7.07115285 9.95303159 -9.8333396 10.52651586 -14 11 C-14.33 12.98 -14.66 14.96 -15 17 C-12.31158141 19.25245881 -10.35358125 20.88213958 -7 22 C-5.62804426 23.29355827 -4.28817344 24.62298702 -3 26 C-3.33 26.99 -3.66 27.98 -4 29 C-4.50789062 28.61328125 -5.01578125 28.2265625 -5.5390625 27.828125 C-6.22742188 27.30734375 -6.91578125 26.7865625 -7.625 26.25 C-8.35074219 25.69957031 -9.07648438 25.14914063 -9.82421875 24.58203125 C-11.65530257 23.25063278 -13.49211444 22.08769146 -15.4375 20.9375 C-18 19 -18 19 -19.125 16.5 C-19 14 -19 14 -17.3359375 12.06640625 C-14.85289781 9.86987114 -12.32379079 8.17133858 -9.5 6.4375 C-6.2168109 4.41256606 -3.04863884 2.36557117 0 0 Z " fill="#9D5A3D" transform="translate(168,135)"/>
<path d="M0 0 C2 1.1875 2 1.1875 4 3 C4.44140625 5.3515625 4.44140625 5.3515625 4 8 C-0.99013376 13.00818126 -7.01978748 16.75907333 -14 18 C-10.9244462 11.3568038 -10.9244462 11.3568038 -6.4375 9.625 C-4.7359375 9.315625 -4.7359375 9.315625 -3 9 C-2.01 8.67 -1.02 8.34 0 8 C0 5.36 0 2.72 0 0 Z " fill="#BB602F" transform="translate(199,129)"/>
<path d="M0 0 C2.9375 0.75 2.9375 0.75 6 2 C7.12081324 4.24162649 7.03703751 5.59258738 6.8125 8.0625 C5.68959732 10.74019101 4.54992933 11.62165982 2 13 C-1.25 13.1875 -1.25 13.1875 -4 13 C-3.01 12.67 -2.02 12.34 -1 12 C-1 10.68 -1 9.36 -1 8 C0.65 8.33 2.3 8.66 4 9 C2.80100302 5.9168649 1.52299523 2.93720508 0 0 Z M-5 13 C-4.67 13.99 -4.34 14.98 -4 16 C-5.62339805 17.70884005 -7.29319053 19.37446717 -9 21 C-9.66 21 -10.32 21 -11 21 C-11 20.34 -11 19.68 -11 19 C-10.34 19 -9.68 19 -9 19 C-8.71125 18.38125 -8.4225 17.7625 -8.125 17.125 C-7 15 -7 15 -5 13 Z " fill="#EE6A19" transform="translate(193,127)"/>
<path d="M0 0 C1.9375 0.25 1.9375 0.25 4 1 C4.66 1.99 5.32 2.98 6 4 C7.63495707 5.05104383 9.29883624 6.05988318 11 7 C9.375 7.6875 9.375 7.6875 7 8 C3.75 6.5625 3.75 6.5625 1 5 C1.33 7.31 1.66 9.62 2 12 C1.01 12.66 0.02 13.32 -1 14 C-1.02685938 11.85423363 -1.04633088 9.70837355 -1.0625 7.5625 C-1.07410156 6.36753906 -1.08570313 5.17257813 -1.09765625 3.94140625 C-1 1 -1 1 0 0 Z " fill="#EB7024" transform="translate(179,119)"/>
<path d="M0 0 C0.66 0.33 1.32 0.66 2 1 C0.625 2.5 0.625 2.5 -1 4 C-1.66 4 -2.32 4 -3 4 C-3 4.66 -3 5.32 -3 6 C-4.0725 6.53625 -5.145 7.0725 -6.25 7.625 C-10.12625221 9.81079739 -11.82149989 12.16583981 -14 16 C-14.99 15.67 -15.98 15.34 -17 15 C-16.43463006 11.72085432 -15.6296988 10.06619192 -13 8 C-10.36982476 6.81642114 -7.73646863 5.91215621 -5 5 C-5 4.34 -5 3.68 -5 3 C-2.625 1.3125 -2.625 1.3125 0 0 Z " fill="#E07030" transform="translate(169,137)"/>
<path d="M0 0 C3.465 1.98 3.465 1.98 7 4 C7 4.66 7 5.32 7 6 C7.556875 6.226875 8.11375 6.45375 8.6875 6.6875 C11.63246684 8.35896766 13.68156544 10.55276352 16 13 C15.01 13.495 15.01 13.495 14 14 C14 13.34 14 12.68 14 12 C13.195625 11.731875 12.39125 11.46375 11.5625 11.1875 C10.716875 10.795625 9.87125 10.40375 9 10 C8.67 9.01 8.34 8.02 8 7 C7.236875 6.9175 6.47375 6.835 5.6875 6.75 C2.45284809 5.84730645 1.64900735 4.86406539 0 2 C0 1.34 0 0.68 0 0 Z " fill="#984C32" transform="translate(182,116)"/>
<path d="M0 0 C0.99 0.33 1.98 0.66 3 1 C2.01 1.495 2.01 1.495 1 2 C0.13829746 5.27537197 -0.47612918 8.57410583 -1.12109375 11.8984375 C-1.97982872 14.92881778 -2.55869164 16.10951609 -5 18 C-6.32 17.34 -7.64 16.68 -9 16 C-8.19949219 15.79375 -7.39898437 15.5875 -6.57421875 15.375 C-3.72109605 14.23830301 -3.72109605 14.23830301 -3.14453125 11.25 C-3.03496094 10.1775 -2.92539063 9.105 -2.8125 8 C-2.1754386 2.1754386 -2.1754386 2.1754386 0 0 Z " fill="#D5662A" transform="translate(178,149)"/>
<path d="M0 0 C2 1.1875 2 1.1875 4 3 C4.5625 5.4375 4.5625 5.4375 4 8 C1.5 10.3125 1.5 10.3125 -1 12 C-1.66 11.67 -2.32 11.34 -3 11 C-2.67 10.01 -2.34 9.02 -2 8 C-1.34 8 -0.68 8 0 8 C0 5.36 0 2.72 0 0 Z " fill="#A15735" transform="translate(199,129)"/>
<path d="M0 0 C2.5 0.3125 2.5 0.3125 5 1 C5.33 1.66 5.66 2.32 6 3 C3 4 3 4 0 3 C0 7.95 0 12.9 0 18 C-0.66 18.33 -1.32 18.66 -2 19 C-1.85982174 16.02046641 -1.71313658 13.04150696 -1.5625 10.0625 C-1.52318359 9.21236328 -1.48386719 8.36222656 -1.44335938 7.48632812 C-1.40146484 6.67744141 -1.35957031 5.86855469 -1.31640625 5.03515625 C-1.27974854 4.2862915 -1.24309082 3.53742676 -1.20532227 2.76586914 C-1 1 -1 1 0 0 Z " fill="#824A34" transform="translate(176,113)"/>
<path d="M0 0 C3.59391114 1.33488128 6.75490696 2.96022723 10 5 C8.375 5.6875 8.375 5.6875 6 6 C2.75 4.5625 2.75 4.5625 0 3 C-0.33 4.32 -0.66 5.64 -1 7 C-0.67 4.69 -0.34 2.38 0 0 Z " fill="#F2701A" transform="translate(180,121)"/>
<path d="M0 0 C1.32 0 2.64 0 4 0 C4 0.66 4 1.32 4 2 C7.60992379 1.34414811 7.60992379 1.34414811 11 0 C11 1.65 11 3.3 11 5 C8.3125 5.3125 8.3125 5.3125 5 5 C2.125 2.5 2.125 2.5 0 0 Z " fill="#A85E34" transform="translate(165,164)"/>
<path d="M0 0 C4.43090471 1.20842856 6.98112756 2.51668565 10 6 C9.67 6.99 9.34 7.98 9 9 C7.68103535 8.07161713 6.37001311 7.13194268 5.0625 6.1875 C4.33160156 5.66542969 3.60070312 5.14335937 2.84765625 4.60546875 C1 3 1 3 0 0 Z " fill="#AE613C" transform="translate(155,155)"/>
<path d="M0 0 C0 1.65 0 3.3 0 5 C-1.98 5 -3.96 5 -6 5 C-5.625 3.0625 -5.625 3.0625 -5 1 C-3 0 -3 0 0 0 Z " fill="#BC633A" transform="translate(175,132)"/>
<path d="M0 0 C1.32 0.66 2.64 1.32 4 2 C3.05125 2.28875 2.1025 2.5775 1.125 2.875 C-2.05211578 3.76825109 -2.05211578 3.76825109 -4 6 C-4.64767793 8.57061311 -4.64767793 8.57061311 -5 11 C-5.33 11 -5.66 11 -6 11 C-6.375 7.75 -6.375 7.75 -6 4 C-3 1.5625 -3 1.5625 0 0 Z " fill="#848484" transform="translate(426,154)"/>
<path d="M0 0 C3 1 3 1 3 1 Z M-1 1 C-0.67 1.99 -0.34 2.98 0 4 C-1.62339805 5.70884005 -3.29319053 7.37446717 -5 9 C-5.66 9 -6.32 9 -7 9 C-7 8.34 -7 7.68 -7 7 C-6.34 7 -5.68 7 -5 7 C-4.71125 6.38125 -4.4225 5.7625 -4.125 5.125 C-3 3 -3 3 -1 1 Z " fill="#ED691D" transform="translate(189,139)"/>
<path d="M0 0 C0.33 0 0.66 0 1 0 C1 3.3 1 6.6 1 10 C-0.65 10 -2.3 10 -4 10 C-4.33 9.34 -4.66 8.68 -5 8 C-3.68 8 -2.36 8 -1 8 C-0.67 5.36 -0.34 2.72 0 0 Z " fill="#744433" transform="translate(177,161)"/>
<path d="M0 0 C0 0.66 0 1.32 0 2 C-1.32 2.33 -2.64 2.66 -4 3 C-4.33 5.31 -4.66 7.62 -5 10 C-5.33 10 -5.66 10 -6 10 C-6 6.7 -6 3.4 -6 0 C-3.50907189 -1.24546405 -2.58919267 -0.7767578 0 0 Z " fill="#C86C48" transform="translate(182,116)"/>
<path d="M0 0 C0.33 0 0.66 0 1 0 C1.21192221 5.19209404 0.5912689 9.126739 -1 14 C-1.33 14 -1.66 14 -2 14 C-2.1799928 8.78020872 -1.97094808 4.92737019 0 0 Z " fill="#904B2E" transform="translate(178,153)"/>
<path d="M0 0 C2.9375 0.75 2.9375 0.75 6 2 C6.875 4.125 6.875 4.125 7 6 C4 6 4 6 1.8125 4.125 C0 2 0 2 0 0 Z " fill="#D76D38" transform="translate(193,127)"/>
<path d="M0 0 C0.99 0.33 1.98 0.66 3 1 C1.8803014 2.00593243 0.7540588 3.0045849 -0.375 4 C-1.00148438 4.556875 -1.62796875 5.11375 -2.2734375 5.6875 C-4 7 -4 7 -6 7 C-4.61990379 3.66476748 -3.15049348 1.81392049 0 0 Z " fill="#858585" transform="translate(385,174)"/>
<path d="M0 0 C-0.33 0.99 -0.66 1.98 -1 3 C-1.99 3 -2.98 3 -4 3 C-4 3.66 -4 4.32 -4 5 C-5.32 5.33 -6.64 5.66 -8 6 C-8 5.34 -8 4.68 -8 4 C-3.64705882 0 -3.64705882 0 0 0 Z " fill="#ED6E1E" transform="translate(174,137)"/>
<path d="" fill="#000000" transform="translate(0,0)"/>
<path d="" fill="#000000" transform="translate(0,0)"/>
<path d="" fill="#000000" transform="translate(0,0)"/>
<path d="" fill="#000000" transform="translate(0,0)"/>
<path d="" fill="#000000" transform="translate(0,0)"/>
<path d="" fill="#000000" transform="translate(0,0)"/>
<path d="" fill="#000000" transform="translate(0,0)"/>
<path d="" fill="#000000" transform="translate(0,0)"/>
<path d="" fill="#000000" transform="translate(0,0)"/>
<path d="" fill="#000000" transform="translate(0,0)"/>
<path d="" fill="#000000" transform="translate(0,0)"/>
<path d="" fill="#000000" transform="translate(0,0)"/>
<path d="" fill="#000000" transform="translate(0,0)"/>
<path d="" fill="#000000" transform="translate(0,0)"/>
<path d="" fill="#000000" transform="translate(0,0)"/>
<path d="" fill="#000000" transform="translate(0,0)"/>
<path d="" fill="#000000" transform="translate(0,0)"/>
<path d="" fill="#000000" transform="translate(0,0)"/>
<path d="" fill="#000000" transform="translate(0,0)"/>
<path d="" fill="#000000" transform="translate(0,0)"/>
<path d="" fill="#000000" transform="translate(0,0)"/>
<path d="" fill="#000000" transform="translate(0,0)"/>
<path d="" fill="#000000" transform="translate(0,0)"/>
<path d="" fill="#000000" transform="translate(0,0)"/>
<path d="" fill="#000000" transform="translate(0,0)"/>
<path d="" fill="#000000" transform="translate(0,0)"/>
<path d="" fill="#000000" transform="translate(0,0)"/>
<path d="" fill="#000000" transform="translate(0,0)"/>
<path d="" fill="#000000" transform="translate(0,0)"/>
<path d="" fill="#000000" transform="translate(0,0)"/>
<path d="" fill="#000000" transform="translate(0,0)"/>
<path d="" fill="#000000" transform="translate(0,0)"/>
<path d="" fill="#000000" transform="translate(0,0)"/>
<path d="" fill="#000000" transform="translate(0,0)"/>
<path d="" fill="#000000" transform="translate(0,0)"/>
<path d="" fill="#000000" transform="translate(0,0)"/>
<path d="" fill="#000000" transform="translate(0,0)"/>
<path d="" fill="#000000" transform="translate(0,0)"/>
<path d="" fill="#000000" transform="translate(0,0)"/>
<path d="" fill="#000000" transform="translate(0,0)"/>
<path d="" fill="#000000" transform="translate(0,0)"/>
<path d="" fill="#000000" transform="translate(0,0)"/>
<path d="" fill="#000000" transform="translate(0,0)"/>
<path d="" fill="#000000" transform="translate(0,0)"/>
<path d="" fill="#000000" transform="translate(0,0)"/>
<path d="" fill="#000000" transform="translate(0,0)"/>
<path d="" fill="#000000" transform="translate(0,0)"/>
<path d="" fill="#000000" transform="translate(0,0)"/>
<path d="" fill="#000000" transform="translate(0,0)"/>
<path d="" fill="#000000" transform="translate(0,0)"/>
<path d="" fill="#000000" transform="translate(0,0)"/>
<path d="" fill="#000000" transform="translate(0,0)"/>
<path d="" fill="#000000" transform="translate(0,0)"/>
<path d="" fill="#000000" transform="translate(0,0)"/>
<path d="" fill="#000000" transform="translate(0,0)"/>
<path d="" fill="#000000" transform="translate(0,0)"/>
<path d="" fill="#000000" transform="translate(0,0)"/>
<path d="" fill="#000000" transform="translate(0,0)"/>
<path d="" fill="#000000" transform="translate(0,0)"/>
<path d="" fill="#000000" transform="translate(0,0)"/>
<path d="" fill="#000000" transform="translate(0,0)"/>
<path d="" fill="#000000" transform="translate(0,0)"/>
<path d="" fill="#000000" transform="translate(0,0)"/>
<path d="" fill="#000000" transform="translate(0,0)"/>
<path d="" fill="#000000" transform="translate(0,0)"/>
<path d="" fill="#000000" transform="translate(0,0)"/>
<path d="" fill="#000000" transform="translate(0,0)"/>
<path d="" fill="#000000" transform="translate(0,0)"/>
<path d="" fill="#000000" transform="translate(0,0)"/>
<path d="" fill="#000000" transform="translate(0,0)"/>
<path d="" fill="#000000" transform="translate(0,0)"/>
<path d="" fill="#000000" transform="translate(0,0)"/>
<path d="" fill="#000000" transform="translate(0,0)"/>
<path d="" fill="#000000" transform="translate(0,0)"/>
<path d="" fill="#000000" transform="translate(0,0)"/>
<path d="" fill="#000000" transform="translate(0,0)"/>
<path d="" fill="#000000" transform="translate(0,0)"/>
<path d="" fill="#000000" transform="translate(0,0)"/>
<path d="" fill="#000000" transform="translate(0,0)"/>
<path d="" fill="#000000" transform="translate(0,0)"/>
<path d="" fill="#000000" transform="translate(0,0)"/>
<path d="" fill="#000000" transform="translate(0,0)"/>
<path d="" fill="#000000" transform="translate(0,0)"/>
<path d="" fill="#000000" transform="translate(0,0)"/>
<path d="" fill="#000000" transform="translate(0,0)"/>
<path d="" fill="#000000" transform="translate(0,0)"/>
<path d="" fill="#000000" transform="translate(0,0)"/>
<path d="" fill="#000000" transform="translate(0,0)"/>
<path d="" fill="#000000" transform="translate(0,0)"/>
<path d="" fill="#000000" transform="translate(0,0)"/>
<path d="" fill="#000000" transform="translate(0,0)"/>
<path d="" fill="#000000" transform="translate(0,0)"/>
<path d="" fill="#000000" transform="translate(0,0)"/>
<path d="" fill="#000000" transform="translate(0,0)"/>
<path d="" fill="#000000" transform="translate(0,0)"/>
<path d="" fill="#000000" transform="translate(0,0)"/>
<path d="" fill="#000000" transform="translate(0,0)"/>
</svg>
